# This file uses centimeters as units for non-parametric coordinates.

mtllib torchlamp.mtl
g default
v 0.547860 1.165056 -0.459356
v 0.124516 1.165056 -0.703774
v -0.356894 1.165056 -0.618889
v -0.671112 1.165056 -0.244418
v -0.671112 1.165056 0.244418
v -0.356894 1.165056 0.618888
v 0.124515 1.165056 0.703774
v 0.547860 1.165056 0.459356
v 0.715052 1.165056 0.000000
v 0.463125 2.622252 -0.385341
v 0.107993 2.622252 -0.590377
v -0.295849 2.622252 -0.519169
v -0.559438 2.622252 -0.205036
v -0.559438 2.622252 0.205036
v -0.295849 2.622252 0.519168
v 0.107993 2.622252 0.590377
v 0.463125 2.622252 0.385341
v 0.603377 2.622252 -0.000000
v 0.000000 1.165056 0.000000
v 0.000000 2.622252 0.000000
v 0.484904 1.165056 -0.407789
v 0.633327 1.165056 0.000000
v 0.484904 1.165056 0.407789
v 0.109084 1.165056 0.624768
v -0.318283 1.165056 0.549412
v -0.597227 1.165056 0.216980
v -0.597226 1.165056 -0.216980
v -0.318283 1.165056 -0.549412
v 0.109084 1.165056 -0.624768
v 0.138046 1.425038 -0.841723
v -0.406882 1.425038 -0.740199
v -0.762557 1.425038 -0.292328
v -0.762557 1.425038 0.292327
v -0.406882 1.425038 0.740199
v 0.138045 1.425038 0.841723
v 0.617246 1.425038 0.549396
v 0.806497 1.425038 0.000000
v 0.617246 1.425038 -0.549396
v 0.609467 1.269049 -0.525113
v 0.796245 1.269049 0.000000
v 0.609467 1.269049 0.525113
v 0.136528 1.269049 0.804520
v -0.401277 1.269049 0.707483
v -0.752305 1.269049 0.279407
v -0.752305 1.269049 -0.279407
v -0.401277 1.269049 -0.707483
v 0.136529 1.269049 -0.804520
vt 0.954905 0.216056
vt 0.905860 0.187114
vt 0.849686 0.196469
vt 0.812667 0.239743
vt 0.812125 0.296688
vt 0.848313 0.340659
vt 0.904299 0.351081
vt 0.953886 0.323078
vt 0.973872 0.269752
vt 0.450754 0.017739
vt 0.509519 0.014028
vt 0.570525 0.008474
vt 0.631208 0.004785
vt 0.691249 0.001673
vt 0.752211 0.000037
vt 0.814018 0.000671
vt 0.875345 0.006746
vt 0.935034 0.013579
vt 0.993076 0.015871
vt 0.490225 0.200366
vt 0.538256 0.191445
vt 0.590348 0.184347
vt 0.643322 0.179383
vt 0.696615 0.175854
vt 0.750224 0.176889
vt 0.803955 0.179901
vt 0.856985 0.182053
vt 0.908317 0.186600
vt 0.957788 0.195942
vt 0.306521 0.367942
vt 0.265131 0.344089
vt 0.218091 0.352422
vt 0.187413 0.389042
vt 0.187452 0.436813
vt 0.218188 0.473384
vt 0.265241 0.481642
vt 0.306593 0.457723
vt 0.322896 0.412819
vt 0.890575 0.268959
vt 0.252605 0.412876
vt 0.947514 0.221993
vt 0.964352 0.269662
vt 0.946609 0.317001
vt 0.902589 0.341860
vt 0.852888 0.332608
vt 0.820763 0.293573
vt 0.821244 0.243021
vt 0.854107 0.204605
vt 0.903975 0.196300
vt 0.511638 0.048795
vt 0.570900 0.042929
vt 0.631518 0.038032
vt 0.693455 0.035570
vt 0.753674 0.034601
vt 0.811699 0.035809
vt 0.871074 0.040218
vt 0.934431 0.046515
vt 1.000000 0.051860
vt 0.447934 0.054559
vt 0.998159 0.032108
vt 0.447710 0.034263
vt 0.934899 0.028356
vt 0.873390 0.022081
vt 0.812845 0.017316
vt 0.752693 0.016151
vt 0.692153 0.017140
vt 0.631316 0.019786
vt 0.570816 0.024587
vt 0.510280 0.030589
vn 0.507605 0.136714 -0.850674
vn 0.507387 0.139465 -0.850357
vn 0.503191 0.185146 -0.844109
vn 0.503191 0.185146 -0.844109
vn -0.177423 0.143571 -0.973606
vn -0.177466 0.142078 -0.973817
vn -0.175632 0.196257 -0.964695
vn -0.175632 0.196257 -0.964695
vn -0.768460 0.142016 -0.623940
vn -0.768797 0.139145 -0.624171
vn -0.763365 0.180038 -0.620371
vn -0.763365 0.180038 -0.620371
vn -0.990452 0.137859 -0.000000
vn -0.990452 0.137859 -0.000000
vn -0.985911 0.167270 -0.000000
vn -0.985911 0.167270 -0.000000
vn -0.768797 0.139145 0.624171
vn -0.768460 0.142016 0.623940
vn -0.763365 0.180038 0.620371
vn -0.763365 0.180038 0.620371
vn -0.177466 0.142078 0.973817
vn -0.177423 0.143571 0.973606
vn -0.175632 0.196257 0.964695
vn -0.175632 0.196257 0.964695
vn 0.507387 0.139465 0.850357
vn 0.507605 0.136714 0.850674
vn 0.503191 0.185146 0.844109
vn 0.503191 0.185146 0.844109
vn 0.935034 0.131418 0.329305
vn 0.935209 0.130043 0.329353
vn 0.930761 0.161347 0.328102
vn 0.930761 0.161347 0.328102
vn 0.935209 0.130043 -0.329353
vn 0.935034 0.131418 -0.329305
vn 0.930761 0.161347 -0.328102
vn 0.930761 0.161347 -0.328102
vn 0.000000 -1.000000 0.000000
vn 0.000000 -1.000000 -0.000000
vn 0.000000 -1.000000 0.000000
vn 0.000000 -1.000000 0.000000
vn 0.000000 -1.000000 0.000000
vn 0.000000 -1.000000 0.000000
vn 0.000000 -1.000000 -0.000000
vn 0.000000 -1.000000 -0.000000
vn 0.000000 -1.000000 0.000000
vn 0.000000 -1.000000 0.000000
vn 0.000000 1.000000 0.000000
vn 0.000000 1.000000 0.000000
vn 0.000000 1.000000 -0.000000
vn 0.000000 1.000000 0.000000
vn 0.000000 1.000000 0.000000
vn 0.000000 1.000000 0.000000
vn 0.000000 1.000000 -0.000000
vn 0.000000 1.000000 -0.000000
vn 0.000000 1.000000 0.000000
vn 0.000000 1.000000 0.000000
vn 0.000000 -1.000000 -0.000000
vn 0.000000 -1.000000 0.000000
vn 0.000000 -1.000000 0.000000
vn 0.000000 -1.000000 -0.000000
vn 0.000000 -1.000000 -0.000000
vn 0.000000 -1.000000 0.000000
vn 0.000000 -1.000000 0.000000
vn 0.000000 -1.000000 0.000000
vn 0.000000 -1.000000 -0.000000
vn -0.129087 -0.678462 -0.723206
vn -0.129087 -0.678462 -0.723206
vn -0.161670 -0.426329 -0.890003
vn -0.162108 -0.421564 -0.892191
vn -0.588338 -0.644998 -0.487684
vn -0.588338 -0.644998 -0.487684
vn -0.723379 -0.359813 -0.589285
vn -0.730340 -0.336727 -0.594322
vn -0.788214 -0.615401 -0.000000
vn -0.788214 -0.615401 -0.000000
vn -0.958061 -0.286566 -0.000000
vn -0.958061 -0.286566 -0.000000
vn -0.588338 -0.644998 0.487684
vn -0.588338 -0.644998 0.487684
vn -0.730340 -0.336727 0.594322
vn -0.723379 -0.359813 0.589285
vn -0.129087 -0.678462 0.723206
vn -0.129087 -0.678462 0.723206
vn -0.162108 -0.421564 0.892191
vn -0.161671 -0.426329 0.890003
vn 0.380724 -0.656267 0.651432
vn 0.380724 -0.656267 0.651432
vn 0.468491 -0.399549 0.787957
vn 0.474011 -0.375813 0.796290
vn 0.751710 -0.601565 0.270281
vn 0.751710 -0.601565 0.270281
vn 0.900188 -0.297563 0.317991
vn 0.905406 -0.279492 0.319569
vn 0.751711 -0.601564 -0.270280
vn 0.751711 -0.601564 -0.270280
vn 0.905406 -0.279493 -0.319568
vn 0.900188 -0.297564 -0.317991
vn 0.380724 -0.656267 -0.651432
vn 0.380724 -0.656267 -0.651432
vn 0.474011 -0.375813 -0.796290
vn 0.468491 -0.399548 -0.787957
s 1
g pCylinder2
usemtl initialShadingGroup
f 38/59/1 30/50/2 11/21/3 10/20/4
s 2
f 30/50/5 31/51/6 12/22/7 11/21/8
s 3
f 31/51/9 32/52/10 13/23/11 12/22/12
s 4
f 32/52/13 33/53/14 14/24/15 13/23/16
s 5
f 33/53/17 34/54/18 15/25/19 14/24/20
s 6
f 34/54/21 35/55/22 16/26/23 15/25/24
s 7
f 35/55/25 36/56/26 17/27/27 16/26/28
s 8
f 36/56/29 37/57/30 18/28/31 17/27/32
s 9
f 37/57/33 38/58/34 10/29/35 18/28/36
s 10
f 29/49/37 21/41/38 19/39/39
f 28/48/40 29/49/37 19/39/39
f 27/47/41 28/48/40 19/39/39
f 26/46/42 27/47/41 19/39/39
f 25/45/43 26/46/42 19/39/39
f 24/44/44 25/45/43 19/39/39
f 23/43/45 24/44/44 19/39/39
f 22/42/46 23/43/45 19/39/39
f 21/41/38 22/42/46 19/39/39
s 11
f 10/37/47 11/36/48 20/40/49
f 11/36/48 12/35/50 20/40/49
f 12/35/50 13/34/51 20/40/49
f 13/34/51 14/33/52 20/40/49
f 14/33/52 15/32/53 20/40/49
f 15/32/53 16/31/54 20/40/49
f 16/31/54 17/30/55 20/40/49
f 17/30/55 18/38/56 20/40/49
f 18/38/56 10/37/47 20/40/49
s 10
f 1/1/57 9/9/58 22/42/46 21/41/38
f 9/9/58 8/8/59 23/43/45 22/42/46
f 8/8/59 7/7/60 24/44/44 23/43/45
f 7/7/60 6/6/61 25/45/43 24/44/44
f 6/6/61 5/5/62 26/46/42 25/45/43
f 5/5/62 4/4/63 27/47/41 26/46/42
f 4/4/63 3/3/64 28/48/40 27/47/41
f 3/3/64 2/2/65 29/49/37 28/48/40
f 2/2/65 1/1/57 21/41/38 29/49/37
s 2
f 2/11/66 3/12/67 46/68/68 47/69/69
s 3
f 3/12/70 4/13/71 45/67/72 46/68/73
s 4
f 4/13/74 5/14/75 44/66/76 45/67/77
s 5
f 5/14/78 6/15/79 43/65/80 44/66/81
s 6
f 6/15/82 7/16/83 42/64/84 43/65/85
s 7
f 7/16/86 8/17/87 41/63/88 42/64/89
s 8
f 8/17/90 9/18/91 40/62/92 41/63/93
s 9
f 9/18/94 1/19/95 39/60/96 40/62/97
s 1
f 1/10/98 2/11/99 47/69/100 39/61/101
s 9
f 40/62/97 39/60/96 38/58/34 37/57/33
s 8
f 41/63/93 40/62/92 37/57/30 36/56/29
s 7
f 42/64/89 41/63/88 36/56/26 35/55/25
s 6
f 43/65/85 42/64/84 35/55/22 34/54/21
s 5
f 44/66/81 43/65/80 34/54/18 33/53/17
s 4
f 45/67/77 44/66/76 33/53/14 32/52/13
s 3
f 46/68/73 45/67/72 32/52/10 31/51/9
s 2
f 47/69/69 46/68/68 31/51/6 30/50/5
s 1
f 39/61/101 47/69/100 30/50/2 38/59/1
g default
v -0.053563 1.533669 0.012786
v 0.047272 1.533669 0.012786
v -0.025916 1.723361 0.018730
v 0.035921 1.723361 0.018093
v -0.025916 1.723361 -0.018730
v 0.035921 1.723361 -0.018093
v -0.053563 1.533669 -0.016125
v 0.047272 1.533669 -0.016125
v -0.000000 1.533669 0.012786
v 0.000000 1.786342 0.018461
v 0.000000 1.786342 -0.018461
v -0.000000 1.533669 -0.016125
vt 0.227458 0.164429
vt 0.240169 0.162056
vt 0.235220 0.185118
vt 0.243079 0.184419
vt 0.235733 0.193222
vt 0.244103 0.192552
vt 0.231104 0.213016
vt 0.244161 0.214119
vt 0.230838 0.216700
vt 0.243691 0.217833
vt 0.243853 0.161338
vt 0.247728 0.183579
vt 0.223855 0.165475
vt 0.230551 0.186586
vt 0.234344 0.163771
vt 0.237696 0.217084
vt 0.239353 0.188473
vt 0.239583 0.189292
vt 0.238087 0.213297
vn 0.025451 -0.027838 0.999288
vn 0.004630 -0.026470 0.999639
vn 0.001964 -0.026294 0.999652
vn 0.025451 -0.027838 0.999288
vn -0.924770 0.380528 0.000000
vn -0.034596 0.999401 0.000000
vn -0.034596 0.999401 0.000000
vn -0.924770 0.380528 0.000000
vn 0.012879 -0.011971 -0.999845
vn 0.003538 -0.010697 -0.999936
vn 0.004631 -0.010846 -0.999930
vn 0.012879 -0.011971 -0.999845
vn 0.000000 -1.000000 0.000000
vn 0.000000 -1.000000 0.000000
vn 0.000000 -1.000000 0.000000
vn 0.000000 -1.000000 0.000000
vn 0.998214 0.059735 0.000000
vn 0.998214 0.059735 0.000000
vn 0.998214 0.059735 0.000000
vn 0.998214 0.059735 0.000000
vn -0.989545 0.144223 0.000000
vn -0.989545 0.144223 0.000000
vn -0.989545 0.144223 0.000000
vn -0.989545 0.144223 0.000000
vn -0.014658 -0.025192 0.999575
vn -0.014658 -0.025192 0.999575
vn 0.868648 0.495430 0.000000
vn 0.868648 0.495430 0.000000
vn -0.003007 -0.009804 -0.999947
vn -0.003007 -0.009804 -0.999947
vn 0.000000 -1.000000 0.000000
vn 0.000000 -1.000000 0.000000
s 1
g pCube3
usemtl initialShadingGroup
f 48/70/102 56/84/103 57/86/104 50/72/105
s 2
f 50/72/106 57/86/107 58/87/108 52/74/109
s 3
f 52/74/110 58/87/111 59/88/112 54/76/113
s 4
f 54/76/114 59/88/115 56/85/116 48/78/117
s off
f 49/71/118 55/80/119 53/81/120 51/73/121
f 54/82/122 48/70/123 50/72/124 52/83/125
s 1
f 57/86/104 56/84/103 49/71/126 51/73/127
s 2
f 58/87/108 57/86/107 51/73/128 53/75/129
s 3
f 59/88/112 58/87/111 53/75/130 55/77/131
s 4
f 56/85/116 59/88/115 55/77/132 49/79/133
g default
v -1.246882 0.940911 0.152672
v -1.150923 0.805563 0.152672
v -1.313869 3.078478 0.152672
v -1.150923 3.178021 0.152672
v -1.313869 3.078478 -0.152672
v -1.150923 3.178021 -0.152672
v -1.246882 0.940911 -0.152672
v -1.150923 0.805563 -0.152672
v -1.365803 2.954310 0.152672
v -1.365803 2.954310 -0.152672
v -1.150923 2.954310 -0.152672
v -1.150923 2.954310 0.152672
v -1.413793 1.142251 0.152672
v -1.413793 1.142251 -0.152672
v -1.170379 1.275581 -0.152672
v -1.170379 1.275581 0.152672
v -0.807226 3.143126 -0.152672
v -0.807226 3.143126 0.152672
v -0.807226 3.366838 -0.152672
v -0.807226 3.366838 0.152672
v -0.763169 0.359855 -0.152672
v -0.763169 0.359855 0.152672
v -0.763169 0.561195 -0.152672
v -0.763169 0.561195 0.152672
vt 0.286326 0.066197
vt 0.463897 0.184571
vt 0.996478 0.353896
vt 0.036038 0.088778
vt 0.099803 0.106646
vt 0.782142 0.374171
vt 0.260296 0.211419
vt 0.327974 0.038347
vt 0.086704 0.351243
vt 0.083295 0.370269
vt 0.075476 0.050470
vt 0.211331 0.216221
vt 0.083295 0.320831
vt 0.962427 0.364187
vt 0.999987 0.543306
vt 0.957891 0.349178
vt 0.088501 0.117514
vt 0.111470 0.127466
vt 0.997591 0.175834
vt 0.606797 0.283528
vt 0.645535 0.336220
vt 0.900626 0.353605
vt 0.494563 0.517007
vt 0.367125 0.000000
vt 0.129207 0.039688
vt 0.677847 0.337366
vt 0.497325 0.333209
vt 0.957891 0.198437
vt 0.223298 0.172133
vt 0.064956 0.053412
vt 0.798577 0.179776
vt 0.031236 0.103189
vt 0.035557 0.235873
vt 0.316154 0.126520
vt 0.121718 0.357517
vt 0.332199 0.019486
vt 0.038294 0.331628
vt 0.928676 0.542770
vt 0.525681 0.525785
vt 0.296143 0.193685
vt 0.118814 0.318901
vt 0.652377 0.306531
vt 0.365001 0.612245
vt 0.895420 0.555395
vt 0.002738 0.332645
vt 0.249885 0.195692
vt 0.314130 0.094945
vt 0.426886 0.242595
vt 0.321864 0.103770
vt 0.000000 0.236890
vt 0.791301 0.202075
vt 0.054404 0.099530
vt 0.825118 0.213108
vt 0.456876 0.261724
vt 0.832394 0.190810
vt 0.287731 0.046920
vt 0.265411 0.143136
vt 0.118309 0.376542
vt 0.493887 0.203701
vt 0.603888 0.329119
vt 0.039330 0.048667
vt 0.188969 0.162815
vt 0.494563 0.359124
vt 0.958287 0.224496
vt 0.529935 0.362894
vt 0.563805 0.343346
vt 0.786508 0.338869
vt 0.177002 0.206903
vt 0.639387 0.331384
vt 0.532697 0.336979
vt 0.121831 0.103553
vt 0.997988 0.201893
vt 0.964836 0.738241
vt 0.429261 0.796965
vt 0.554321 0.319072
vt 0.010412 0.084033
vt 0.664291 0.387805
vt 0.998092 0.725616
vt 0.642296 0.285793
vt 0.120466 0.349324
vt 0.934440 0.342564
vt 0.333180 0.606522
vt 0.084947 0.351253
vt 0.266184 0.181526
vt 0.991942 0.338887
vt 0.531005 0.328181
vt 0.405525 0.804916
vt 0.966173 0.554347
vt 0.646426 0.370270
vt 0.764432 0.336138
vt 0.541904 0.339453
vt 0.760066 0.371441
vn 0.000000 0.000000 1.000000
vn 0.000000 0.000000 1.000000
vn 0.000000 0.000000 1.000000
vn -0.521314 0.853365 0.000000
vn -0.494650 0.869092 0.000000
vn -0.494650 0.869092 0.000000
vn -0.521314 0.853365 0.000000
vn 0.000000 0.000000 -1.000000
vn 0.000000 0.000000 -1.000000
vn 0.000000 0.000000 -1.000000
vn -0.815774 -0.578371 0.000000
vn -0.768547 -0.639794 0.000000
vn -0.768547 -0.639794 0.000000
vn -0.815774 -0.578371 0.000000
vn 1.000000 0.000000 0.000000
vn 1.000000 0.000000 0.000000
vn 1.000000 0.000000 0.000000
vn 1.000000 0.000000 0.000000
vn -0.769859 -0.638214 0.000000
vn -0.769859 -0.638214 0.000000
vn -0.998260 -0.058962 0.000000
vn -0.998260 -0.058962 0.000000
vn -0.998671 0.051539 0.000000
vn -0.998671 0.051539 0.000000
vn -0.922558 0.385859 0.000000
vn -0.922558 0.385859 0.000000
vn 0.000000 0.000000 -1.000000
vn 0.000000 0.000000 -1.000000
vn 0.000000 0.000000 -1.000000
vn 0.000000 0.000000 -1.000000
vn 1.000000 0.000000 0.000000
vn 1.000000 0.000000 0.000000
vn 1.000000 0.000000 0.000000
vn 1.000000 0.000000 0.000000
vn 0.000000 0.000000 1.000000
vn 0.000000 0.000000 1.000000
vn 0.000000 0.000000 1.000000
vn 0.000000 0.000000 1.000000
vn 0.000000 0.000000 -1.000000
vn 0.999933 -0.011589 0.000000
vn 0.999933 -0.011589 0.000000
vn 0.999933 -0.011589 0.000000
vn 0.999933 -0.011589 0.000000
vn 0.481495 -0.876449 0.000000
vn 0.481495 -0.876449 0.000000
vn 0.481495 -0.876449 0.000000
vn 0.481495 -0.876449 0.000000
vn 0.000000 0.000000 -1.000000
vn 0.000000 0.000000 -1.000000
vn -0.481495 0.876449 0.000000
vn -0.481495 0.876449 0.000000
vn 0.000000 0.000000 1.000000
vn 0.000000 0.000000 1.000000
vn -0.754454 -0.656353 0.000000
vn -0.754454 -0.656353 0.000000
vn 0.000000 0.000000 -1.000000
vn 0.000000 0.000000 -1.000000
vn 0.868772 0.495212 0.000000
vn 0.868772 0.495212 0.000000
vn 0.868772 0.495212 0.000000
vn 0.868772 0.495212 0.000000
vn 0.000000 0.000000 1.000000
vn 0.000000 0.000000 1.000000
vn 0.000000 0.000000 1.000000
s 1
g pCube1
usemtl initialShadingGroup
f 60/130/134 75/114/135 72/109/136
s 2
f 62/178/137 63/155/138 65/94/139 64/180/140
s 3
f 66/124/141 74/112/142 67/96/143
s 4
f 66/123/144 67/146/145 61/98/146 60/97/147
s off
f 81/119/148 80/143/149 82/141/150 83/139/151
s 5
f 66/101/152 60/129/153 72/168/154 73/171/155
f 69/104/156 68/173/157 62/91/158 64/102/159
s 3
f 64/93/160 65/159/161 70/106/162 69/105/163
s off
f 77/115/164 76/158/165 78/153/166 79/151/167
s 1
f 68/174/168 71/163/169 63/154/170 62/179/171
s 5
f 73/110/155 72/169/154 68/103/157 69/176/156
s 3
f 69/177/163 70/165/162 74/127/142 73/111/172
s off
f 75/132/173 74/126/174 70/166/175 71/161/176
s 1
f 72/170/136 75/131/135 71/162/169 68/175/168
s off
f 71/108/177 70/167/178 76/157/179 77/148/180
s 3
f 70/107/162 65/160/161 78/152/181 76/116/182
s 2
f 65/100/139 63/156/138 79/150/183 78/117/184
s 1
f 63/92/170 71/164/169 77/149/185 79/118/186
s 4
f 61/90/146 67/147/145 80/142/187 81/136/188
s 3
f 67/99/143 74/113/142 82/140/189 80/120/190
s off
f 74/125/191 75/133/192 83/138/193 82/121/194
s 1
f 75/134/135 61/145/195 81/137/196 83/122/197
f 60/89/134 61/144/195 75/135/135
s 3
f 73/172/172 74/128/142 66/95/141
g default
v 0.080885 1.166649 -0.168951
v -0.080885 1.166649 -0.168951
v -0.161770 1.166649 -0.000000
v -0.080885 1.166649 0.168951
v 0.080885 1.166649 0.168951
v 0.161770 1.166649 0.000000
v 0.080885 1.505977 -0.168951
v -0.080885 1.505977 -0.168951
v -0.161770 1.505977 -0.000000
v -0.080885 1.505977 0.168951
v 0.080885 1.505977 0.168951
v 0.161770 1.505977 0.000000
v 0.000000 1.166649 0.000000
v 0.000000 1.505977 0.000000
vt 0.988934 0.303448
vt 0.968239 0.303448
vt 0.957891 0.321371
vt 0.968239 0.339293
vt 0.988934 0.339293
vt 0.999282 0.321371
vt 0.000000 0.012631
vt 0.018750 0.010732
vt 0.040460 0.008532
vt 0.062170 0.006333
vt 0.080920 0.004434
vt 0.102630 0.002235
vt 0.124341 0.000036
vt 0.003984 0.051960
vt 0.022733 0.050061
vt 0.044444 0.047862
vt 0.066154 0.045663
vt 0.084904 0.043763
vt 0.106614 0.041564
vt 0.128325 0.039365
vt 0.817139 0.311812
vt 0.796443 0.311812
vt 0.786095 0.329735
vt 0.796443 0.347658
vt 0.817139 0.347658
vt 0.827486 0.329735
vt 0.978587 0.321371
vt 0.806791 0.329735
vn 0.000000 0.000000 -1.000000
vn 0.000000 0.000000 -1.000000
vn 0.000000 0.000000 -1.000000
vn 0.000000 0.000000 -1.000000
vn -0.901964 0.000000 -0.431811
vn -0.901964 0.000000 -0.431811
vn -0.901964 0.000000 -0.431811
vn -0.901964 0.000000 -0.431811
vn -0.901964 0.000000 0.431811
vn -0.901964 0.000000 0.431811
vn -0.901964 0.000000 0.431811
vn -0.901964 0.000000 0.431811
vn -0.000000 0.000000 1.000000
vn -0.000000 0.000000 1.000000
vn -0.000000 0.000000 1.000000
vn -0.000000 0.000000 1.000000
vn 0.901964 0.000000 0.431811
vn 0.901964 0.000000 0.431811
vn 0.901964 0.000000 0.431811
vn 0.901964 0.000000 0.431811
vn 0.901964 0.000000 -0.431811
vn 0.901964 0.000000 -0.431811
vn 0.901964 0.000000 -0.431811
vn 0.901964 0.000000 -0.431811
vn 0.000000 -1.000000 0.000000
vn 0.000000 -1.000000 0.000000
vn 0.000000 -1.000000 0.000000
vn 0.000000 -1.000000 0.000000
vn 0.000000 -1.000000 -0.000000
vn 0.000000 -1.000000 -0.000000
vn 0.000000 -1.000000 0.000000
vn 0.000000 1.000000 0.000000
vn 0.000000 1.000000 -0.000000
vn 0.000000 1.000000 0.000000
vn 0.000000 1.000000 -0.000000
vn 0.000000 1.000000 0.000000
vn 0.000000 1.000000 0.000000
vn 0.000000 1.000000 0.000000
s off
g pCylinder4
usemtl initialShadingGroup
f 84/187/198 85/188/199 91/195/200 90/194/201
f 85/188/202 86/189/203 92/196/204 91/195/205
f 86/189/206 87/190/207 93/197/208 92/196/209
f 87/190/210 88/191/211 94/198/212 93/197/213
f 88/191/214 89/192/215 95/199/216 94/198/217
f 89/192/218 84/193/219 90/200/220 95/199/221
s 1
f 85/182/222 84/181/223 96/207/224
f 86/183/225 85/182/222 96/207/224
f 87/184/226 86/183/225 96/207/224
f 88/185/227 87/184/226 96/207/224
f 89/186/228 88/185/227 96/207/224
f 84/181/223 89/186/228 96/207/224
s 2
f 90/205/229 91/204/230 97/208/231
f 91/204/230 92/203/232 97/208/231
f 92/203/232 93/202/233 97/208/231
f 93/202/233 94/201/234 97/208/231
f 94/201/234 95/206/235 97/208/231
f 95/206/235 90/205/229 97/208/231
g default
v 0.937467 -0.017335 -0.681110
v 0.358081 -0.017335 -1.102059
v -0.358081 -0.017335 -1.102059
v -0.937467 -0.017335 -0.681110
v -1.158773 -0.017335 0.000000
v -0.937467 -0.017335 0.681110
v -0.358081 -0.017335 1.102059
v 0.358081 -0.017335 1.102059
v 0.937467 -0.017335 0.681110
v 1.158773 -0.017335 0.000000
v 0.809017 0.190754 -0.587785
v 0.309017 0.190754 -0.951057
v -0.309017 0.190754 -0.951057
v -0.809017 0.190754 -0.587785
v -1.000000 0.190754 0.000000
v -0.809017 0.190754 0.587785
v -0.309017 0.190754 0.951057
v 0.309017 0.190754 0.951057
v 0.809017 0.190754 0.587785
v 1.000000 0.190754 0.000000
v 0.000000 -0.017335 0.000000
v 0.809017 0.643974 -0.587785
v 0.309017 0.643974 -0.951057
v -0.309017 0.643974 -0.951057
v -0.809017 0.643974 -0.587785
v -1.000000 0.643974 0.000000
v -0.809017 0.643974 0.587785
v -0.309017 0.643974 0.951057
v 0.309017 0.643974 0.951057
v 0.809017 0.643974 0.587785
v 1.000000 0.643974 -0.000000
v 0.677834 0.802588 -0.492475
v 0.258909 0.802588 -0.796841
v -0.258910 0.802588 -0.796841
v -0.677834 0.802588 -0.492475
v -0.837849 0.802588 0.000000
v -0.677834 0.802588 0.492475
v -0.258909 0.802588 0.796841
v 0.258909 0.802588 0.796841
v 0.677834 0.802588 0.492475
v 0.837848 0.802588 -0.000000
v 0.363946 0.812928 -0.264423
v 0.139015 0.812928 -0.427845
v -0.139015 0.812928 -0.427845
v -0.363947 0.812928 -0.264423
v -0.449863 0.812928 -0.000000
v -0.363947 0.812928 0.264423
v -0.139015 0.812928 0.427845
v 0.139015 0.812928 0.427845
v 0.363946 0.812928 0.264423
v 0.449863 0.812928 -0.000000
v 0.378104 1.141241 -0.274709
v 0.144423 1.141241 -0.444489
v -0.000000 1.165736 -0.000000
v -0.144423 1.141241 -0.444488
v -0.378104 1.141241 -0.274709
v -0.467363 1.141241 -0.000000
v -0.378104 1.141241 0.274709
v -0.144423 1.141241 0.444488
v 0.144423 1.141241 0.444488
v 0.378104 1.141241 0.274709
v 0.467363 1.141241 -0.000000
vt 0.759591 0.615795
vt 0.692095 0.566756
vt 0.608665 0.566756
vt 0.541168 0.615795
vt 0.515387 0.695142
vt 0.541168 0.774489
vt 0.608665 0.823528
vt 0.692095 0.823528
vt 0.759591 0.774489
vt 0.785373 0.695142
vt 0.439437 0.824078
vt 0.426886 0.741597
vt 0.445592 0.660291
vt 0.492924 0.591587
vt 0.562230 0.545141
vt 0.643770 0.527481
vt 0.726083 0.541090
vt 0.797600 0.584054
vt 0.848269 0.650335
vt 0.870969 0.730618
vt 0.862510 0.813618
vt 0.468188 0.813922
vt 0.457357 0.742742
vt 0.473499 0.672576
vt 0.514346 0.613286
vt 0.574156 0.573204
vt 0.644524 0.557964
vt 0.715558 0.569708
vt 0.777276 0.606785
vt 0.821003 0.663985
vt 0.840593 0.733267
vt 0.833292 0.804895
vt 0.451843 0.152524
vt 0.447395 0.071465
vt 0.423580 0.000017
vt 0.022043 0.214467
vt 0.068374 0.283155
vt 0.137093 0.330944
vt 0.218714 0.350145
vt 0.301687 0.338079
vt 0.374433 0.296561
vt 0.426856 0.231547
vt 0.650380 0.695142
vt 0.204935 0.082167
vt 0.340176 0.257191
vt 0.284046 0.288960
vt 0.220150 0.298000
vt 0.157337 0.282909
vt 0.104441 0.245411
vt 0.069107 0.189929
vt 0.371086 0.014836
vt 0.396628 0.079899
vt 0.400421 0.145487
vt 0.380812 0.207112
vt 0.323000 0.236889
vt 0.275415 0.263791
vt 0.221297 0.271447
vt 0.168100 0.258707
vt 0.123238 0.227033
vt 0.093205 0.180032
vt 0.346942 0.031302
vt 0.371261 0.085680
vt 0.374394 0.141951
vt 0.357543 0.194417
vt 0.271819 0.135071
vt 0.227950 0.164275
vt 0.175285 0.162108
vt 0.133946 0.129394
vt 0.119736 0.078615
vt 0.138112 0.029203
vt 0.182005 0.000036
vt 0.234648 0.002231
vt 0.275948 0.034939
vt 0.290146 0.085672
vt 0.244542 0.114949
vt 0.217711 0.131966
vt 0.185995 0.129956
vt 0.161515 0.109689
vt 0.153628 0.078905
vt 0.165352 0.049367
vt 0.192195 0.032363
vt 0.223902 0.034380
vt 0.248366 0.054645
vt 0.256249 0.085417
vt 0.317730 0.171591
vt 0.294175 0.200946
vt 0.329252 0.135799
vt 0.327366 0.098840
vt 0.311904 0.067679
vt 0.136282 0.166868
vt 0.157000 0.196810
vt 0.187993 0.217443
vt 0.224568 0.225522
vt 0.261656 0.219782
vt 0.083730 0.122688
vt 0.131364 0.133556
vt 0.054682 0.121990
vt 0.000000 0.138884
vn 0.475727 0.587320 -0.654782
vn 0.475727 0.587320 -0.654782
vn 0.475727 0.587320 -0.654782
vn 0.475727 0.587320 -0.654782
vn -0.000000 0.587320 -0.809355
vn -0.000000 0.587320 -0.809355
vn -0.000000 0.587320 -0.809355
vn -0.000000 0.587320 -0.809355
vn -0.475727 0.587320 -0.654782
vn -0.475727 0.587320 -0.654782
vn -0.475727 0.587320 -0.654782
vn -0.475727 0.587320 -0.654782
vn -0.769742 0.587319 -0.250104
vn -0.769742 0.587319 -0.250104
vn -0.769743 0.587319 -0.250104
vn -0.769743 0.587319 -0.250104
vn -0.769742 0.587320 0.250105
vn -0.769742 0.587320 0.250105
vn -0.769742 0.587320 0.250105
vn -0.769742 0.587320 0.250105
vn -0.475727 0.587320 0.654782
vn -0.475727 0.587320 0.654782
vn -0.475727 0.587320 0.654782
vn -0.475727 0.587320 0.654782
vn 0.000000 0.587320 0.809355
vn 0.000000 0.587320 0.809355
vn 0.000000 0.587320 0.809355
vn 0.000000 0.587320 0.809355
vn 0.475727 0.587320 0.654782
vn 0.475727 0.587320 0.654782
vn 0.475727 0.587320 0.654782
vn 0.475727 0.587320 0.654782
vn 0.769742 0.587320 0.250104
vn 0.769742 0.587320 0.250104
vn 0.769742 0.587320 0.250104
vn 0.769742 0.587320 0.250104
vn 0.769742 0.587320 -0.250104
vn 0.769742 0.587320 -0.250104
vn 0.769743 0.587320 -0.250104
vn 0.769743 0.587320 -0.250104
vn 0.000000 -1.000000 0.000000
vn 0.000000 -1.000000 0.000000
vn 0.000000 -1.000000 -0.000000
vn 0.000000 -1.000000 0.000000
vn 0.000000 -1.000000 0.000000
vn 0.000000 -1.000000 0.000000
vn 0.000000 -1.000000 -0.000000
vn 0.000000 -1.000000 -0.000000
vn 0.000000 -1.000000 0.000000
vn 0.000000 -1.000000 0.000000
vn 0.000000 -1.000000 0.000000
vn 0.042342 0.998629 -0.030763
vn 0.016173 0.998629 -0.049776
vn 0.000000 1.000000 0.000000
vn -0.016173 0.998630 -0.049775
vn -0.042342 0.998629 -0.030763
vn -0.052338 0.998629 -0.000000
vn -0.042342 0.998629 0.030763
vn -0.016173 0.998629 0.049776
vn 0.016173 0.998629 0.049776
vn 0.042342 0.998629 0.030763
vn 0.052338 0.998629 -0.000000
vn 0.587785 0.000000 -0.809017
vn 0.587785 0.000000 -0.809017
vn 0.572471 0.226780 -0.787939
vn 0.572471 0.226780 -0.787939
vn -0.000000 0.000000 -1.000000
vn -0.000000 0.000000 -1.000000
vn -0.000000 0.226780 -0.973946
vn -0.000000 0.226780 -0.973946
vn -0.587785 0.000000 -0.809017
vn -0.587785 0.000000 -0.809017
vn -0.572471 0.226780 -0.787939
vn -0.572471 0.226780 -0.787939
vn -0.951057 0.000000 -0.309017
vn -0.951057 0.000000 -0.309017
vn -0.926278 0.226780 -0.300966
vn -0.926278 0.226780 -0.300966
vn -0.951057 0.000000 0.309017
vn -0.951057 0.000000 0.309017
vn -0.926278 0.226780 0.300966
vn -0.926278 0.226780 0.300966
vn -0.587785 0.000000 0.809017
vn -0.587785 0.000000 0.809017
vn -0.572471 0.226780 0.787939
vn -0.572471 0.226780 0.787939
vn 0.000000 0.000000 1.000000
vn 0.000000 0.000000 1.000000
vn 0.000000 0.226780 0.973946
vn 0.000000 0.226780 0.973946
vn 0.587785 0.000000 0.809017
vn 0.587785 0.000000 0.809017
vn 0.572471 0.226780 0.787939
vn 0.572471 0.226780 0.787939
vn 0.951057 0.000000 0.309017
vn 0.951057 0.000000 0.309017
vn 0.926278 0.226780 0.300966
vn 0.926278 0.226780 0.300966
vn 0.951057 -0.000000 -0.309017
vn 0.951057 -0.000000 -0.309017
vn 0.926278 0.226780 -0.300966
vn 0.926278 0.226780 -0.300966
vn 0.421429 0.697096 -0.580048
vn 0.421429 0.697096 -0.580048
vn -0.000000 0.697096 -0.716978
vn -0.000000 0.697096 -0.716978
vn -0.421429 0.697095 -0.580048
vn -0.421429 0.697095 -0.580048
vn -0.681887 0.697096 -0.221558
vn -0.681887 0.697096 -0.221558
vn -0.681887 0.697096 0.221559
vn -0.681887 0.697096 0.221559
vn -0.421429 0.697096 0.580047
vn -0.421429 0.697096 0.580047
vn 0.000000 0.697096 0.716978
vn 0.000000 0.697096 0.716978
vn 0.421429 0.697095 0.580048
vn 0.421429 0.697095 0.580048
vn 0.681887 0.697096 0.221559
vn 0.681887 0.697096 0.221559
vn 0.681887 0.697095 -0.221558
vn 0.681887 0.697095 -0.221558
vn 0.016465 0.999608 -0.022662
vn 0.016465 0.999608 -0.022662
vn 0.016465 0.999608 -0.022662
vn 0.016465 0.999608 -0.022662
vn -0.000000 0.999608 -0.028012
vn -0.000000 0.999608 -0.028012
vn -0.000000 0.999608 -0.028012
vn -0.000000 0.999608 -0.028012
vn -0.016465 0.999608 -0.022662
vn -0.016465 0.999608 -0.022662
vn -0.016465 0.999608 -0.022662
vn -0.016465 0.999608 -0.022662
vn -0.026641 0.999608 -0.008656
vn -0.026641 0.999608 -0.008656
vn -0.026641 0.999608 -0.008656
vn -0.026641 0.999608 -0.008656
vn -0.026641 0.999608 0.008656
vn -0.026641 0.999608 0.008656
vn -0.026641 0.999608 0.008656
vn -0.026641 0.999608 0.008656
vn -0.016465 0.999608 0.022662
vn -0.016465 0.999608 0.022662
vn -0.016465 0.999608 0.022662
vn -0.016465 0.999608 0.022662
vn 0.000000 0.999608 0.028012
vn 0.000000 0.999608 0.028012
vn 0.000000 0.999608 0.028012
vn 0.000000 0.999608 0.028012
vn 0.016465 0.999608 0.022662
vn 0.016465 0.999608 0.022662
vn 0.016465 0.999608 0.022662
vn 0.016465 0.999608 0.022662
vn 0.026641 0.999608 0.008656
vn 0.026641 0.999608 0.008656
vn 0.026641 0.999608 0.008656
vn 0.026641 0.999608 0.008656
vn 0.026641 0.999608 -0.008656
vn 0.026641 0.999608 -0.008656
vn 0.026641 0.999608 -0.008656
vn 0.026641 0.999608 -0.008656
vn 0.587032 -0.050629 -0.807979
vn 0.587032 -0.050629 -0.807979
vn 0.587032 -0.050629 -0.807979
vn 0.587032 -0.050629 -0.807979
vn -0.000000 -0.050629 -0.998718
vn -0.000000 -0.050629 -0.998718
vn -0.000000 -0.050629 -0.998717
vn -0.000000 -0.050629 -0.998717
vn -0.587032 -0.050629 -0.807979
vn -0.587032 -0.050629 -0.807979
vn -0.587032 -0.050629 -0.807979
vn -0.587032 -0.050629 -0.807979
vn -0.949837 -0.050629 -0.308621
vn -0.949837 -0.050629 -0.308621
vn -0.949837 -0.050629 -0.308621
vn -0.949837 -0.050629 -0.308621
vn -0.949837 -0.050629 0.308621
vn -0.949837 -0.050629 0.308621
vn -0.949837 -0.050629 0.308621
vn -0.949837 -0.050629 0.308621
vn -0.587032 -0.050629 0.807979
vn -0.587032 -0.050629 0.807979
vn -0.587032 -0.050629 0.807979
vn -0.587032 -0.050629 0.807979
vn 0.000000 -0.050629 0.998718
vn 0.000000 -0.050629 0.998718
vn 0.000000 -0.050629 0.998718
vn 0.000000 -0.050629 0.998718
vn 0.587032 -0.050629 0.807979
vn 0.587032 -0.050629 0.807979
vn 0.587032 -0.050629 0.807979
vn 0.587032 -0.050629 0.807979
vn 0.949837 -0.050629 0.308621
vn 0.949837 -0.050629 0.308621
vn 0.949837 -0.050629 0.308621
vn 0.949837 -0.050629 0.308621
vn 0.949837 -0.050629 -0.308621
vn 0.949837 -0.050629 -0.308621
vn 0.949837 -0.050629 -0.308621
vn 0.949837 -0.050629 -0.308621
s off
g pCylinder1
usemtl initialShadingGroup
f 98/219/236 99/220/237 109/231/238 108/230/239
f 99/220/240 100/221/241 110/232/242 109/231/243
f 100/221/244 101/222/245 111/233/246 110/232/247
f 101/222/248 102/223/249 112/234/250 111/233/251
f 102/223/252 103/224/253 113/235/254 112/234/255
f 103/224/256 104/225/257 114/236/258 113/235/259
f 104/225/260 105/226/261 115/237/262 114/236/263
f 105/226/264 106/227/265 116/238/266 115/237/267
f 106/227/268 107/228/269 117/239/270 116/238/271
f 107/228/272 98/229/273 108/240/274 117/239/275
s 1
f 99/210/276 98/209/277 118/251/278
f 100/211/279 99/210/276 118/251/278
f 101/212/280 100/211/279 118/251/278
f 102/213/281 101/212/280 118/251/278
f 103/214/282 102/213/281 118/251/278
f 104/215/283 103/214/282 118/251/278
f 105/216/284 104/215/283 118/251/278
f 106/217/285 105/216/284 118/251/278
f 107/218/286 106/217/285 118/251/278
f 98/209/277 107/218/286 118/251/278
s 2
f 149/283/287 150/284/288 151/252/289
f 150/284/288 152/285/290 151/252/289
f 152/285/290 153/286/291 151/252/289
f 153/286/291 154/287/292 151/252/289
f 154/287/292 155/288/293 151/252/289
f 155/288/293 156/289/294 151/252/289
f 156/289/294 157/290/295 151/252/289
f 157/290/295 158/291/296 151/252/289
f 158/291/296 159/292/297 151/252/289
f 159/292/297 149/283/287 151/252/289
s 3
f 108/249/298 109/248/299 120/254/300 119/253/301
s 4
f 109/248/302 110/247/303 121/255/304 120/254/305
s 5
f 110/247/306 111/246/307 122/256/308 121/255/309
s 6
f 111/246/310 112/245/311 123/257/312 122/256/313
s 7
f 112/245/314 113/244/315 124/258/316 123/257/317
s 8
f 113/244/318 114/306/319 125/305/320 124/258/321
s 9
f 114/243/322 115/242/323 126/260/324 125/259/325
s 10
f 115/242/326 116/241/327 127/261/328 126/260/329
s 11
f 116/241/330 117/250/331 128/262/332 127/261/333
s 12
f 117/250/334 108/249/335 119/253/336 128/262/337
s 3
f 119/253/301 120/254/300 130/264/338 129/263/339
s 4
f 120/254/305 121/255/304 131/265/340 130/264/341
s 5
f 121/255/309 122/256/308 132/266/342 131/265/343
s 6
f 122/256/313 123/257/312 133/267/344 132/266/345
s 7
f 123/257/317 124/258/316 134/268/346 133/267/347
s 8
f 124/258/321 125/305/320 135/303/348 134/268/349
s 9
f 125/259/325 126/260/324 136/270/350 135/269/351
s 10
f 126/260/329 127/261/328 137/271/352 136/270/353
s 11
f 127/261/333 128/262/332 138/272/354 137/271/355
s 12
f 128/262/337 119/253/336 129/263/356 138/272/357
s off
f 129/263/358 130/264/359 140/302/360 139/294/361
f 130/264/362 131/265/363 141/301/364 140/302/365
f 131/265/366 132/266/367 142/300/368 141/301/369
f 132/266/370 133/267/371 143/299/372 142/300/373
f 133/267/374 134/268/375 144/298/376 143/299/377
f 134/268/378 135/303/379 145/304/380 144/298/381
f 135/269/382 136/270/383 146/296/384 145/297/385
f 136/270/386 137/271/387 147/295/388 146/296/389
f 137/271/390 138/272/391 148/293/392 147/295/393
f 138/272/394 129/263/395 139/294/396 148/293/397
f 139/273/398 140/274/399 150/284/400 149/283/401
f 140/274/402 141/275/403 152/285/404 150/284/405
f 141/275/406 142/276/407 153/286/408 152/285/409
f 142/276/410 143/277/411 154/287/412 153/286/413
f 143/277/414 144/278/415 155/288/416 154/287/417
f 144/278/418 145/279/419 156/289/420 155/288/421
f 145/279/422 146/280/423 157/290/424 156/289/425
f 146/280/426 147/281/427 158/291/428 157/290/429
f 147/281/430 148/282/431 159/292/432 158/291/433
f 148/282/434 139/273/435 149/283/436 159/292/437
g default
v 1.246755 0.940911 -0.152672
v 1.150796 0.805563 -0.152672
v 1.313743 3.078478 -0.152672
v 1.150796 3.178021 -0.152672
v 1.313743 3.078478 0.152672
v 1.150796 3.178021 0.152672
v 1.246755 0.940911 0.152672
v 1.150796 0.805563 0.152672
v 1.365676 2.954310 -0.152672
v 1.365676 2.954310 0.152672
v 1.150796 2.954310 0.152672
v 1.150796 2.954310 -0.152672
v 1.413666 1.142251 -0.152672
v 1.413666 1.142251 0.152672
v 1.170252 1.275581 0.152672
v 1.170252 1.275581 -0.152672
v 0.807099 3.143126 0.152672
v 0.807099 3.143126 -0.152672
v 0.807099 3.366838 0.152672
v 0.807099 3.366838 -0.152672
v 0.763042 0.359855 0.152672
v 0.763042 0.359855 -0.152672
v 0.763042 0.561195 0.152672
v 0.763042 0.561195 -0.152672
vt 0.000000 0.087822
vt 0.479515 0.238478
vt 0.184353 0.356573
vt 0.088097 0.113013
vt 0.266393 0.003128
vt 0.995585 0.253831
vt 0.124942 0.359810
vt 0.281120 0.182476
vt 0.456325 0.347168
vt 0.452916 0.366193
vt 0.538804 0.195390
vt 0.315450 0.053435
vt 0.452916 0.316755
vt 0.150302 0.366864
vt 0.921898 0.543388
vt 0.145766 0.351855
vt 0.255091 0.013995
vt 0.278060 0.023947
vt 0.638382 0.237632
vt 0.565150 0.293520
vt 0.140560 0.172551
vt 0.822537 0.353687
vt 0.489357 0.326361
vt 0.320271 0.144129
vt 0.592535 0.184609
vt 0.172872 0.173696
vt 0.002762 0.332638
vt 0.598682 0.260235
vt 0.327417 0.009346
vt 0.117015 0.077647
vt 0.418544 0.249694
vt 0.494563 0.248110
vt 0.077204 0.289938
vt 0.602480 0.205802
vt 0.491339 0.353441
vt 0.285346 0.163616
vt 0.079942 0.385693
vt 0.902646 0.588141
vt 0.520475 0.335140
vt 0.160789 0.342076
vt 0.488435 0.314826
vt 0.147402 0.142862
vt 0.333766 0.630072
vt 0.869390 0.600767
vt 0.044385 0.386709
vt 0.536211 0.274975
vt 0.027804 0.116570
vt 0.442504 0.296502
vt 0.608190 0.183052
vt 0.041647 0.290954
vt 0.411268 0.271993
vt 0.517732 0.244450
vt 0.445085 0.283027
vt 0.472494 0.315631
vt 0.452361 0.260728
vt 0.001405 0.068545
vt 0.551738 0.222418
vt 0.487930 0.372466
vt 0.509505 0.257608
vt 0.562240 0.339111
vt 0.091389 0.072902
vt 0.293087 0.000028
vt 0.000000 0.358553
vt 0.599078 0.286293
vt 0.035371 0.362323
vt 0.480510 0.183469
vt 0.999952 0.218529
vt 0.281120 0.044117
vt 0.597740 0.341376
vt 0.038133 0.336408
vt 0.288421 0.000034
vt 0.638779 0.263691
vt 0.938807 0.783612
vt 0.398026 0.814792
vt 0.471026 0.159194
vt 0.062471 0.108268
vt 0.659085 0.197160
vt 0.972062 0.770987
vt 0.600649 0.295785
vt 0.490087 0.345248
vt 0.856351 0.342646
vt 0.301944 0.624349
vt 0.454568 0.347177
vt 0.130830 0.329917
vt 0.179816 0.341564
vt 0.447710 0.168303
vt 0.374289 0.822743
vt 0.888084 0.554429
vt 0.641220 0.179625
vt 0.977875 0.215798
vt 0.458609 0.179575
vt 0.973509 0.251101
vn -0.000000 0.000000 -1.000000
vn -0.000000 0.000000 -1.000000
vn -0.000000 0.000000 -1.000000
vn 0.521314 0.853365 -0.000000
vn 0.494650 0.869092 -0.000000
vn 0.494650 0.869092 -0.000000
vn 0.521314 0.853365 -0.000000
vn 0.000000 0.000000 1.000000
vn 0.000000 0.000000 1.000000
vn 0.000000 0.000000 1.000000
vn 0.815774 -0.578371 -0.000000
vn 0.768547 -0.639794 -0.000000
vn 0.768547 -0.639794 -0.000000
vn 0.815774 -0.578371 -0.000000
vn -1.000000 0.000000 0.000000
vn -1.000000 0.000000 0.000000
vn -1.000000 0.000000 0.000000
vn -1.000000 0.000000 0.000000
vn 0.769859 -0.638214 -0.000000
vn 0.769859 -0.638214 -0.000000
vn 0.998260 -0.058962 -0.000000
vn 0.998260 -0.058962 -0.000000
vn 0.998671 0.051539 -0.000000
vn 0.998671 0.051539 -0.000000
vn 0.922558 0.385859 -0.000000
vn 0.922558 0.385859 -0.000000
vn 0.000000 0.000000 1.000000
vn 0.000000 0.000000 1.000000
vn 0.000000 0.000000 1.000000
vn 0.000000 0.000000 1.000000
vn -1.000000 0.000000 0.000000
vn -1.000000 0.000000 0.000000
vn -1.000000 0.000000 0.000000
vn -1.000000 0.000000 0.000000
vn -0.000000 0.000000 -1.000000
vn -0.000000 0.000000 -1.000000
vn -0.000000 0.000000 -1.000000
vn -0.000000 0.000000 -1.000000
vn 0.000000 0.000000 1.000000
vn -0.999933 -0.011589 0.000000
vn -0.999933 -0.011589 0.000000
vn -0.999933 -0.011589 0.000000
vn -0.999933 -0.011589 0.000000
vn -0.481495 -0.876449 0.000000
vn -0.481495 -0.876449 0.000000
vn -0.481495 -0.876449 0.000000
vn -0.481495 -0.876449 0.000000
vn 0.000000 0.000000 1.000000
vn 0.000000 0.000000 1.000000
vn 0.481495 0.876449 -0.000000
vn 0.481495 0.876449 -0.000000
vn -0.000000 0.000000 -1.000000
vn -0.000000 0.000000 -1.000000
vn 0.754454 -0.656353 -0.000000
vn 0.754454 -0.656353 -0.000000
vn 0.000000 0.000000 1.000000
vn 0.000000 0.000000 1.000000
vn -0.868772 0.495212 0.000000
vn -0.868772 0.495212 0.000000
vn -0.868772 0.495212 0.000000
vn -0.868772 0.495212 0.000000
vn -0.000000 0.000000 -1.000000
vn -0.000000 0.000000 -1.000000
vn -0.000000 0.000000 -1.000000
s 1
g pCube4
usemtl initialShadingGroup
f 160/348/438 175/332/439 172/327/440
s 2
f 162/396/441 163/373/442 165/312/443 164/398/444
s 3
f 166/342/445 174/330/446 167/314/447
s 4
f 166/341/448 167/364/449 161/316/450 160/315/451
s off
f 181/337/452 180/361/453 182/359/454 183/357/455
s 5
f 166/319/456 160/347/457 172/386/458 173/389/459
f 169/322/460 168/391/461 162/309/462 164/320/463
s 3
f 164/311/464 165/377/465 170/324/466 169/323/467
s off
f 177/333/468 176/376/469 178/371/470 179/369/471
s 1
f 168/392/472 171/381/473 163/372/474 162/397/475
s 5
f 173/328/459 172/387/458 168/321/461 169/394/460
s 3
f 169/395/467 170/383/466 174/345/446 173/329/476
s off
f 175/350/477 174/344/478 170/384/479 171/379/480
s 1
f 172/388/440 175/349/439 171/380/473 168/393/472
s off
f 171/326/481 170/385/482 176/375/483 177/366/484
s 3
f 170/325/466 165/378/465 178/370/485 176/334/486
s 2
f 165/318/443 163/374/442 179/368/487 178/335/488
s 1
f 163/310/474 171/382/473 177/367/489 179/336/490
s 4
f 161/308/450 167/365/449 180/360/491 181/354/492
s 3
f 167/317/447 174/331/446 182/358/493 180/338/494
s off
f 174/343/495 175/351/496 183/356/497 182/339/498
s 1
f 175/352/439 161/363/499 181/355/500 183/340/501
f 160/307/438 161/362/499 175/353/439
s 3
f 173/390/476 174/346/446 166/313/445
g default
v -0.937467 3.778579 -0.681110
v -0.358081 3.778579 -1.102059
v 0.358081 3.778579 -1.102059
v 0.937467 3.778579 -0.681110
v 1.158773 3.778579 0.000000
v 0.937467 3.778579 0.681110
v 0.358081 3.778579 1.102059
v -0.358081 3.778579 1.102059
v -0.937467 3.778579 0.681110
v -1.158773 3.778579 0.000000
v -0.809017 3.570491 -0.587785
v -0.309017 3.570491 -0.951057
v 0.309017 3.570491 -0.951057
v 0.809017 3.570491 -0.587785
v 1.000000 3.570491 0.000000
v 0.809017 3.570491 0.587785
v 0.309017 3.570491 0.951057
v -0.309017 3.570491 0.951057
v -0.809017 3.570491 0.587785
v -1.000000 3.570491 0.000000
v -0.000000 3.778579 0.000000
v -0.809017 3.117271 -0.587785
v -0.309017 3.117271 -0.951057
v 0.309017 3.117271 -0.951057
v 0.809017 3.117271 -0.587785
v 1.000000 3.117271 0.000000
v 0.809017 3.117271 0.587785
v 0.309017 3.117271 0.951057
v -0.309017 3.117271 0.951057
v -0.809017 3.117271 0.587785
v -1.000000 3.117271 -0.000000
v -0.677834 2.958657 -0.492475
v -0.258909 2.958657 -0.796841
v 0.258910 2.958657 -0.796841
v 0.677834 2.958657 -0.492475
v 0.837849 2.958657 0.000000
v 0.677834 2.958657 0.492475
v 0.258909 2.958657 0.796841
v -0.258909 2.958657 0.796841
v -0.677834 2.958657 0.492475
v -0.837848 2.958657 -0.000000
v -0.363946 2.948316 -0.264423
v -0.139015 2.948316 -0.427845
v 0.139015 2.948316 -0.427845
v 0.363947 2.948316 -0.264423
v 0.449863 2.948316 -0.000000
v 0.363947 2.948316 0.264423
v 0.139015 2.948316 0.427845
v -0.139015 2.948316 0.427845
v -0.363946 2.948316 0.264423
v -0.449863 2.948316 -0.000000
v -0.378104 2.620003 -0.274709
v -0.144423 2.620003 -0.444489
v 0.000000 2.595509 -0.000000
v 0.144423 2.620003 -0.444488
v 0.378104 2.620003 -0.274709
v 0.467363 2.620003 -0.000000
v 0.378104 2.620003 0.274709
v 0.144423 2.620003 0.444488
v -0.144423 2.620003 0.444488
v -0.378104 2.620003 0.274709
v -0.467363 2.620003 -0.000000
vt 0.244204 0.676810
vt 0.176708 0.627771
vt 0.093278 0.627771
vt 0.025781 0.676810
vt 0.000000 0.756157
vt 0.025781 0.835504
vt 0.093278 0.884543
vt 0.176708 0.884543
vt 0.244204 0.835504
vt 0.269986 0.756157
vt 0.439437 0.635385
vt 0.426886 0.552904
vt 0.445592 0.471597
vt 0.492924 0.402893
vt 0.562230 0.356447
vt 0.643770 0.338788
vt 0.726083 0.352396
vt 0.797600 0.395361
vt 0.848269 0.461642
vt 0.870969 0.541924
vt 0.862510 0.624925
vt 0.468188 0.625228
vt 0.457357 0.554049
vt 0.473499 0.483883
vt 0.514346 0.424593
vt 0.574156 0.384511
vt 0.644524 0.369271
vt 0.715558 0.381015
vt 0.777276 0.418092
vt 0.821003 0.475291
vt 0.840593 0.544574
vt 0.833292 0.616202
vt 0.451843 0.438972
vt 0.447395 0.357913
vt 0.423580 0.286465
vt 0.022043 0.500915
vt 0.068374 0.569602
vt 0.137093 0.617392
vt 0.218714 0.636592
vt 0.301687 0.624527
vt 0.374433 0.583009
vt 0.426856 0.517994
vt 0.134993 0.756157
vt 0.725528 0.258196
vt 0.340176 0.543638
vt 0.284046 0.575407
vt 0.220150 0.584448
vt 0.157337 0.569356
vt 0.104441 0.531859
vt 0.069107 0.476377
vt 0.371086 0.301284
vt 0.396628 0.366347
vt 0.400421 0.431934
vt 0.380812 0.493560
vt 0.323000 0.523336
vt 0.275415 0.550239
vt 0.221297 0.557894
vt 0.168100 0.545154
vt 0.123238 0.513481
vt 0.093205 0.466479
vt 0.346942 0.317750
vt 0.371261 0.372127
vt 0.374394 0.428399
vt 0.357543 0.480865
vt 0.792412 0.311100
vt 0.748543 0.340303
vt 0.695878 0.338137
vt 0.654539 0.305422
vt 0.640329 0.254643
vt 0.658705 0.205232
vt 0.702598 0.176065
vt 0.755241 0.178260
vt 0.796541 0.210967
vt 0.810739 0.261701
vt 0.765135 0.290978
vt 0.738304 0.307995
vt 0.706588 0.305985
vt 0.682108 0.285717
vt 0.674221 0.254934
vt 0.685945 0.225396
vt 0.712788 0.208391
vt 0.744495 0.210409
vt 0.768959 0.230674
vt 0.776842 0.261446
vt 0.317730 0.458039
vt 0.294175 0.487394
vt 0.329252 0.422247
vt 0.327366 0.385287
vt 0.311904 0.354126
vt 0.136282 0.453316
vt 0.157000 0.483257
vt 0.187993 0.503890
vt 0.224568 0.511970
vt 0.261656 0.506229
vt 0.083730 0.409136
vt 0.131364 0.420004
vt 0.054682 0.408438
vt 0.000000 0.425331
vn -0.475727 -0.587320 -0.654782
vn -0.475727 -0.587320 -0.654782
vn -0.475727 -0.587320 -0.654782
vn -0.475727 -0.587320 -0.654782
vn 0.000000 -0.587320 -0.809355
vn 0.000000 -0.587320 -0.809355
vn 0.000000 -0.587320 -0.809355
vn 0.000000 -0.587320 -0.809355
vn 0.475727 -0.587320 -0.654782
vn 0.475727 -0.587320 -0.654782
vn 0.475727 -0.587320 -0.654782
vn 0.475727 -0.587320 -0.654782
vn 0.769742 -0.587319 -0.250104
vn 0.769742 -0.587319 -0.250104
vn 0.769743 -0.587319 -0.250104
vn 0.769743 -0.587319 -0.250104
vn 0.769742 -0.587320 0.250105
vn 0.769742 -0.587320 0.250105
vn 0.769742 -0.587320 0.250105
vn 0.769742 -0.587320 0.250105
vn 0.475727 -0.587320 0.654782
vn 0.475727 -0.587320 0.654782
vn 0.475727 -0.587320 0.654782
vn 0.475727 -0.587320 0.654782
vn 0.000000 -0.587320 0.809355
vn 0.000000 -0.587320 0.809355
vn 0.000000 -0.587320 0.809355
vn 0.000000 -0.587320 0.809355
vn -0.475727 -0.587320 0.654782
vn -0.475727 -0.587320 0.654782
vn -0.475727 -0.587320 0.654782
vn -0.475727 -0.587320 0.654782
vn -0.769742 -0.587320 0.250104
vn -0.769742 -0.587320 0.250104
vn -0.769742 -0.587320 0.250104
vn -0.769742 -0.587320 0.250104
vn -0.769742 -0.587320 -0.250104
vn -0.769742 -0.587320 -0.250104
vn -0.769743 -0.587320 -0.250104
vn -0.769743 -0.587320 -0.250104
vn -0.000000 1.000000 0.000000
vn -0.000000 1.000000 0.000000
vn -0.000000 1.000000 -0.000000
vn -0.000000 1.000000 0.000000
vn -0.000000 1.000000 0.000000
vn -0.000000 1.000000 0.000000
vn -0.000000 1.000000 -0.000000
vn -0.000000 1.000000 -0.000000
vn -0.000000 1.000000 0.000000
vn -0.000000 1.000000 0.000000
vn -0.000000 1.000000 0.000000
vn -0.042342 -0.998629 -0.030763
vn -0.016173 -0.998629 -0.049776
vn -0.000000 -1.000000 0.000000
vn 0.016173 -0.998630 -0.049775
vn 0.042342 -0.998629 -0.030763
vn 0.052338 -0.998629 -0.000000
vn 0.042342 -0.998629 0.030763
vn 0.016173 -0.998629 0.049776
vn -0.016173 -0.998629 0.049776
vn -0.042342 -0.998629 0.030763
vn -0.052338 -0.998629 -0.000000
vn -0.587785 -0.000000 -0.809017
vn -0.587785 -0.000000 -0.809017
vn -0.572471 -0.226780 -0.787939
vn -0.572471 -0.226780 -0.787939
vn 0.000000 0.000000 -1.000000
vn 0.000000 0.000000 -1.000000
vn 0.000000 -0.226780 -0.973946
vn 0.000000 -0.226780 -0.973946
vn 0.587785 0.000000 -0.809017
vn 0.587785 0.000000 -0.809017
vn 0.572471 -0.226780 -0.787939
vn 0.572471 -0.226780 -0.787939
vn 0.951057 0.000000 -0.309017
vn 0.951057 0.000000 -0.309017
vn 0.926278 -0.226780 -0.300966
vn 0.926278 -0.226780 -0.300966
vn 0.951057 -0.000000 0.309017
vn 0.951057 -0.000000 0.309017
vn 0.926278 -0.226780 0.300966
vn 0.926278 -0.226780 0.300966
vn 0.587785 0.000000 0.809017
vn 0.587785 0.000000 0.809017
vn 0.572471 -0.226780 0.787939
vn 0.572471 -0.226780 0.787939
vn -0.000000 -0.000000 1.000000
vn -0.000000 -0.000000 1.000000
vn -0.000000 -0.226780 0.973946
vn -0.000000 -0.226780 0.973946
vn -0.587785 -0.000000 0.809017
vn -0.587785 -0.000000 0.809017
vn -0.572471 -0.226780 0.787939
vn -0.572471 -0.226780 0.787939
vn -0.951057 -0.000000 0.309017
vn -0.951057 -0.000000 0.309017
vn -0.926278 -0.226780 0.300966
vn -0.926278 -0.226780 0.300966
vn -0.951057 -0.000000 -0.309017
vn -0.951057 -0.000000 -0.309017
vn -0.926278 -0.226780 -0.300966
vn -0.926278 -0.226780 -0.300966
vn -0.421429 -0.697096 -0.580048
vn -0.421429 -0.697096 -0.580048
vn 0.000000 -0.697096 -0.716978
vn 0.000000 -0.697096 -0.716978
vn 0.421429 -0.697095 -0.580048
vn 0.421429 -0.697095 -0.580048
vn 0.681887 -0.697096 -0.221558
vn 0.681887 -0.697096 -0.221558
vn 0.681887 -0.697096 0.221559
vn 0.681887 -0.697096 0.221559
vn 0.421429 -0.697096 0.580047
vn 0.421429 -0.697096 0.580047
vn 0.000000 -0.697096 0.716978
vn 0.000000 -0.697096 0.716978
vn -0.421429 -0.697095 0.580048
vn -0.421429 -0.697095 0.580048
vn -0.681887 -0.697096 0.221559
vn -0.681887 -0.697096 0.221559
vn -0.681887 -0.697095 -0.221558
vn -0.681887 -0.697095 -0.221558
vn -0.016465 -0.999608 -0.022662
vn -0.016465 -0.999608 -0.022662
vn -0.016465 -0.999608 -0.022662
vn -0.016465 -0.999608 -0.022662
vn 0.000000 -0.999608 -0.028012
vn 0.000000 -0.999608 -0.028012
vn 0.000000 -0.999608 -0.028012
vn 0.000000 -0.999608 -0.028012
vn 0.016465 -0.999608 -0.022662
vn 0.016465 -0.999608 -0.022662
vn 0.016465 -0.999608 -0.022662
vn 0.016465 -0.999608 -0.022662
vn 0.026641 -0.999608 -0.008656
vn 0.026641 -0.999608 -0.008656
vn 0.026641 -0.999608 -0.008656
vn 0.026641 -0.999608 -0.008656
vn 0.026641 -0.999608 0.008656
vn 0.026641 -0.999608 0.008656
vn 0.026641 -0.999608 0.008656
vn 0.026641 -0.999608 0.008656
vn 0.016465 -0.999608 0.022662
vn 0.016465 -0.999608 0.022662
vn 0.016465 -0.999608 0.022662
vn 0.016465 -0.999608 0.022662
vn 0.000000 -0.999608 0.028012
vn 0.000000 -0.999608 0.028012
vn 0.000000 -0.999608 0.028012
vn 0.000000 -0.999608 0.028012
vn -0.016465 -0.999608 0.022662
vn -0.016465 -0.999608 0.022662
vn -0.016465 -0.999608 0.022662
vn -0.016465 -0.999608 0.022662
vn -0.026641 -0.999608 0.008656
vn -0.026641 -0.999608 0.008656
vn -0.026641 -0.999608 0.008656
vn -0.026641 -0.999608 0.008656
vn -0.026641 -0.999608 -0.008656
vn -0.026641 -0.999608 -0.008656
vn -0.026641 -0.999608 -0.008656
vn -0.026641 -0.999608 -0.008656
vn -0.587032 0.050629 -0.807979
vn -0.587032 0.050629 -0.807979
vn -0.587032 0.050629 -0.807979
vn -0.587032 0.050629 -0.807979
vn 0.000000 0.050629 -0.998718
vn 0.000000 0.050629 -0.998718
vn 0.000000 0.050629 -0.998717
vn 0.000000 0.050629 -0.998717
vn 0.587032 0.050629 -0.807979
vn 0.587032 0.050629 -0.807979
vn 0.587032 0.050629 -0.807979
vn 0.587032 0.050629 -0.807979
vn 0.949837 0.050629 -0.308621
vn 0.949837 0.050629 -0.308621
vn 0.949837 0.050629 -0.308621
vn 0.949837 0.050629 -0.308621
vn 0.949837 0.050629 0.308621
vn 0.949837 0.050629 0.308621
vn 0.949837 0.050629 0.308621
vn 0.949837 0.050629 0.308621
vn 0.587032 0.050629 0.807979
vn 0.587032 0.050629 0.807979
vn 0.587032 0.050629 0.807979
vn 0.587032 0.050629 0.807979
vn -0.000000 0.050629 0.998718
vn -0.000000 0.050629 0.998718
vn -0.000000 0.050629 0.998718
vn -0.000000 0.050629 0.998718
vn -0.587032 0.050629 0.807979
vn -0.587032 0.050629 0.807979
vn -0.587032 0.050629 0.807979
vn -0.587032 0.050629 0.807979
vn -0.949837 0.050629 0.308621
vn -0.949837 0.050629 0.308621
vn -0.949837 0.050629 0.308621
vn -0.949837 0.050629 0.308621
vn -0.949837 0.050629 -0.308621
vn -0.949837 0.050629 -0.308621
vn -0.949837 0.050629 -0.308621
vn -0.949837 0.050629 -0.308621
s off
g pCylinder5
usemtl initialShadingGroup
f 184/409/502 185/410/503 195/421/504 194/420/505
f 185/410/506 186/411/507 196/422/508 195/421/509
f 186/411/510 187/412/511 197/423/512 196/422/513
f 187/412/514 188/413/515 198/424/516 197/423/517
f 188/413/518 189/414/519 199/425/520 198/424/521
f 189/414/522 190/415/523 200/426/524 199/425/525
f 190/415/526 191/416/527 201/427/528 200/426/529
f 191/416/530 192/417/531 202/428/532 201/427/533
f 192/417/534 193/418/535 203/429/536 202/428/537
f 193/418/538 184/419/539 194/430/540 203/429/541
s 1
f 185/400/542 184/399/543 204/441/544
f 186/401/545 185/400/542 204/441/544
f 187/402/546 186/401/545 204/441/544
f 188/403/547 187/402/546 204/441/544
f 189/404/548 188/403/547 204/441/544
f 190/405/549 189/404/548 204/441/544
f 191/406/550 190/405/549 204/441/544
f 192/407/551 191/406/550 204/441/544
f 193/408/552 192/407/551 204/441/544
f 184/399/543 193/408/552 204/441/544
s 2
f 235/473/553 236/474/554 237/442/555
f 236/474/554 238/475/556 237/442/555
f 238/475/556 239/476/557 237/442/555
f 239/476/557 240/477/558 237/442/555
f 240/477/558 241/478/559 237/442/555
f 241/478/559 242/479/560 237/442/555
f 242/479/560 243/480/561 237/442/555
f 243/480/561 244/481/562 237/442/555
f 244/481/562 245/482/563 237/442/555
f 245/482/563 235/473/553 237/442/555
s 3
f 194/439/564 195/438/565 206/444/566 205/443/567
s 4
f 195/438/568 196/437/569 207/445/570 206/444/571
s 5
f 196/437/572 197/436/573 208/446/574 207/445/575
s 6
f 197/436/576 198/435/577 209/447/578 208/446/579
s 7
f 198/435/580 199/434/581 210/448/582 209/447/583
s 8
f 199/434/584 200/496/585 211/495/586 210/448/587
s 9
f 200/433/588 201/432/589 212/450/590 211/449/591
s 10
f 201/432/592 202/431/593 213/451/594 212/450/595
s 11
f 202/431/596 203/440/597 214/452/598 213/451/599
s 12
f 203/440/600 194/439/601 205/443/602 214/452/603
s 3
f 205/443/567 206/444/566 216/454/604 215/453/605
s 4
f 206/444/571 207/445/570 217/455/606 216/454/607
s 5
f 207/445/575 208/446/574 218/456/608 217/455/609
s 6
f 208/446/579 209/447/578 219/457/610 218/456/611
s 7
f 209/447/583 210/448/582 220/458/612 219/457/613
s 8
f 210/448/587 211/495/586 221/493/614 220/458/615
s 9
f 211/449/591 212/450/590 222/460/616 221/459/617
s 10
f 212/450/595 213/451/594 223/461/618 222/460/619
s 11
f 213/451/599 214/452/598 224/462/620 223/461/621
s 12
f 214/452/603 205/443/602 215/453/622 224/462/623
s off
f 215/453/624 216/454/625 226/492/626 225/484/627
f 216/454/628 217/455/629 227/491/630 226/492/631
f 217/455/632 218/456/633 228/490/634 227/491/635
f 218/456/636 219/457/637 229/489/638 228/490/639
f 219/457/640 220/458/641 230/488/642 229/489/643
f 220/458/644 221/493/645 231/494/646 230/488/647
f 221/459/648 222/460/649 232/486/650 231/487/651
f 222/460/652 223/461/653 233/485/654 232/486/655
f 223/461/656 224/462/657 234/483/658 233/485/659
f 224/462/660 215/453/661 225/484/662 234/483/663
f 225/463/664 226/464/665 236/474/666 235/473/667
f 226/464/668 227/465/669 238/475/670 236/474/671
f 227/465/672 228/466/673 239/476/674 238/475/675
f 228/466/676 229/467/677 240/477/678 239/476/679
f 229/467/680 230/468/681 241/478/682 240/477/683
f 230/468/684 231/469/685 242/479/686 241/478/687
f 231/469/688 232/470/689 243/480/690 242/479/691
f 232/470/692 233/471/693 244/481/694 243/480/695
f 233/471/696 234/472/697 245/482/698 244/481/699
f 234/472/700 225/463/701 235/473/702 245/482/703
