# This file uses centimeters as units for non-parametric coordinates.

g default
v -5.220000 -1.212000 6.665000
v 5.219113 -1.212000 6.665000
v -5.507812 -0.605781 6.665000
v 5.219113 -0.846510 6.665000
v -5.645801 0.000436 6.665000
v -5.507812 0.606653 6.665000
v 5.219113 0.862056 6.665000
v -5.220000 1.212873 6.665000
v 5.219113 1.212873 6.665000
v -5.220000 1.212873 -6.664132
v 5.219113 1.212873 -6.664132
v -5.507812 0.606653 -6.664132
v 5.219113 0.862056 -6.664132
v -5.645801 0.000436 -6.664132
v -5.507812 -0.605781 -6.664132
v 5.219113 -0.846510 -6.664132
v -5.220000 -1.212000 -6.664132
v 5.219113 -1.212000 -6.664132
v -4.806401 0.862056 6.665000
v -4.518588 1.212873 6.665000
v -4.518588 1.212873 -6.664132
v -4.806401 0.862056 -6.664132
v -4.870808 0.000436 -6.567634
v -4.806401 -0.846510 -6.664132
v -4.518588 -1.212000 -6.664132
v -4.518588 -1.212000 6.665000
v -4.806401 -0.846510 6.665000
v -4.870808 0.000436 6.568502
v 4.981354 -0.806249 -6.350044
v 4.981354 -0.806249 6.350913
v 4.911243 0.000783 -6.258093
v 4.911243 0.000783 6.258962
v 4.981354 0.821795 -6.350044
v 4.981354 0.821795 6.350913
v -4.571676 0.821795 -6.350044
v -4.633049 0.000783 -6.258093
v -4.571676 -0.806249 -6.350044
v -4.571676 -0.806249 6.350913
v -4.633049 0.000783 6.258962
v -4.571676 0.821795 6.350913
vt 0.366318 0.381419
vt 0.384562 0.381477
vt 0.377049 0.390924
vt 0.358861 0.397118
vt 0.348789 0.381735
vt 0.355609 0.400215
vt 0.333033 0.400012
vt 0.333114 0.380519
vt 0.310078 0.400004
vt 0.317428 0.381603
vt 0.307238 0.396895
vt 0.289105 0.390170
vt 0.281670 0.381039
vt 0.299908 0.381136
vt 0.283485 0.035695
vt 0.301648 0.035797
vt 0.290983 0.026645
vt 0.309194 0.020129
vt 0.319023 0.035495
vt 0.311763 0.017047
vt 0.334710 0.017207
vt 0.334629 0.036703
vt 0.357281 0.017217
vt 0.350245 0.035627
vt 0.360190 0.020349
vt 0.378345 0.026636
vt 0.385768 0.036129
vt 0.367610 0.036078
vt 0.636896 0.382298
vt 0.638045 0.036963
vt 0.647510 0.036993
vt 0.646404 0.382329
vt 0.930626 0.602286
vt 0.936485 0.275569
vt 0.957526 0.276236
vt 0.951676 0.602392
vt 0.978938 0.276331
vt 0.973079 0.603081
vt 0.020229 0.379607
vt 0.022105 0.034275
vt 0.031200 0.034323
vt 0.029348 0.379656
vt 0.289049 0.390198
vt 0.029307 0.388735
vt 0.031241 0.025216
vt 0.961917 0.028088
vt 0.983189 0.030044
vt 0.940948 0.029293
vt 0.638090 0.027472
vt 0.377109 0.390956
vt 0.636853 0.391751
vt 0.946807 0.850530
vt 0.925898 0.848549
vt 0.968138 0.849366
vt 0.653730 0.045151
vt 0.652691 0.374211
vt 0.014009 0.371436
vt 0.015818 0.042378
vt 0.313408 0.007005
vt 0.334737 0.007034
vt 0.037444 0.017035
vt 0.284945 0.018413
vt 0.355707 0.007166
vt 0.384456 0.018458
vt 0.631959 0.019235
vt 0.353939 0.410250
vt 0.332973 0.410186
vt 0.630673 0.399930
vt 0.383170 0.399193
vt 0.311649 0.410055
vt 0.282917 0.398379
vt 0.035417 0.396970
vn 0.000000 0.000000 1.000000
vn 0.000000 0.000000 1.000000
vn 0.003754 0.003723 0.999986
vn 0.069957 0.069316 0.995139
vn 0.069957 0.069316 0.995139
vn 0.003754 0.003723 0.999986
vn 0.078043 0.000000 0.996950
vn 0.078043 0.000000 0.996950
vn 0.078043 0.000000 0.996950
vn 0.078043 0.000000 0.996950
vn 0.003784 -0.003693 0.999986
vn 0.071208 -0.069316 0.995050
vn 0.071208 -0.069316 0.995050
vn 0.003784 -0.003693 0.999986
vn 0.000000 0.000000 1.000000
vn 0.000000 0.000000 1.000000
vn 0.000000 1.000000 0.000000
vn 0.000000 1.000000 0.000000
vn 0.000000 1.000000 0.000000
vn 0.000000 1.000000 0.000000
vn 0.000000 0.000000 -1.000000
vn 0.000000 0.000000 -1.000000
vn 0.003784 -0.003693 -0.999986
vn 0.071208 -0.069316 -0.995050
vn 0.071208 -0.069316 -0.995050
vn 0.003784 -0.003693 -0.999986
vn 0.078043 0.000000 -0.996950
vn 0.078043 0.000000 -0.996950
vn 0.078043 0.000000 -0.996950
vn 0.078043 0.000000 -0.996950
vn 0.003754 0.003723 -0.999986
vn 0.069957 0.069316 -0.995139
vn 0.069957 0.069316 -0.995139
vn 0.003754 0.003723 -0.999986
vn 0.000000 0.000000 -1.000000
vn 0.000000 0.000000 -1.000000
vn 0.000000 -1.000000 0.000000
vn 0.000000 -1.000000 0.000000
vn 0.000000 -1.000000 0.000000
vn 0.000000 -1.000000 0.000000
vn 1.000000 0.000000 0.000000
vn 1.000000 0.000000 0.000000
vn 1.000000 0.000000 0.000000
vn 1.000000 0.000000 0.000000
vn 0.996255 0.086468 0.000000
vn 0.996255 0.086468 0.000000
vn 1.000000 0.000000 0.000000
vn 1.000000 0.000000 0.000000
vn 1.000000 0.000000 0.000000
vn 1.000000 0.000000 0.000000
vn 0.996381 -0.085003 0.000000
vn 0.996381 -0.085003 0.000000
vn 1.000000 0.000000 0.000000
vn 1.000000 0.000000 0.000000
vn 1.000000 0.000000 0.000000
vn 1.000000 0.000000 0.000000
vn -0.903379 -0.428843 0.000000
vn -0.903379 -0.428843 0.000000
vn -0.943517 -0.331324 0.000000
vn -0.943517 -0.331324 0.000000
vn -0.943517 -0.331324 0.000000
vn -0.943517 -0.331324 0.000000
vn -1.000000 0.000000 0.000000
vn -1.000000 0.000000 0.000000
vn -1.000000 0.000000 0.000000
vn -1.000000 0.000000 0.000000
vn -0.943517 0.331324 0.000000
vn -0.943517 0.331324 0.000000
vn -0.943517 0.331324 0.000000
vn -0.943517 0.331324 0.000000
vn -0.903379 0.428843 0.000000
vn -0.903379 0.428843 0.000000
vn 0.003784 -0.003693 0.999986
vn 0.000000 0.000000 1.000000
vn 0.000000 0.000000 1.000000
vn 0.000000 0.000000 1.000000
vn 0.000000 1.000000 0.000000
vn 0.000000 1.000000 0.000000
vn 0.000000 1.000000 0.000000
vn 0.000000 1.000000 0.000000
vn 0.003784 -0.003693 -0.999986
vn 0.000000 0.000000 -1.000000
vn 0.000000 0.000000 -1.000000
vn 0.000000 0.000000 -1.000000
vn 0.000000 0.000000 -1.000000
vn 0.000000 -0.111276 -0.993790
vn 0.000000 -0.111276 -0.993790
vn 0.000000 0.000000 -1.000000
vn 0.000000 0.113198 -0.993572
vn 0.000000 0.000000 -1.000000
vn 0.000000 0.000000 -1.000000
vn 0.000000 0.113198 -0.993572
vn 0.000000 0.000000 -1.000000
vn 0.003754 0.003723 -0.999986
vn 0.000000 0.000000 -1.000000
vn 0.000000 0.000000 -1.000000
vn 0.000000 -1.000000 0.000000
vn 0.000000 -1.000000 0.000000
vn 0.000000 -1.000000 0.000000
vn 0.000000 -1.000000 0.000000
vn 0.003754 0.003723 0.999986
vn 0.000000 0.000000 1.000000
vn 0.000000 0.000000 1.000000
vn 0.000000 0.000000 1.000000
vn 0.000000 0.000000 1.000000
vn 0.000000 0.113198 0.993572
vn 0.000000 0.113198 0.993572
vn 0.000000 0.000000 1.000000
vn 0.000000 -0.111276 0.993790
vn 0.000000 0.000000 1.000000
vn 0.000000 0.000000 1.000000
vn 0.000000 -0.111276 0.993790
vn 0.166942 0.985967 0.000000
vn 0.166942 0.985967 0.000000
vn 0.166942 0.985967 0.000000
vn 0.166942 0.985967 0.000000
vn 0.166942 -0.985967 0.000000
vn 0.166942 -0.985967 0.000000
vn 0.166942 -0.985967 0.000000
vn 0.166942 -0.985967 0.000000
vn 0.786781 -0.126450 -0.604141
vn 0.786781 -0.126450 -0.604141
vn 0.786781 -0.126450 -0.604141
vn 0.786781 -0.126450 -0.604141
vn 0.000000 -0.991896 -0.127054
vn 0.000000 -0.991896 -0.127054
vn 0.000000 -0.991896 -0.127054
vn 0.000000 -0.991896 -0.127054
vn 0.786438 0.128585 -0.604136
vn 0.786438 0.128585 -0.604136
vn 0.786438 0.128585 -0.604136
vn 0.786438 0.128585 -0.604136
vn 0.000000 0.991896 -0.127054
vn 0.000000 0.991896 -0.127054
vn 0.000000 0.991896 -0.127054
vn 0.000000 0.991896 -0.127054
vn 0.786438 0.128585 0.604136
vn 0.786438 0.128585 0.604136
vn 0.786438 0.128585 0.604136
vn 0.786438 0.128585 0.604136
vn 0.000000 0.991896 0.127054
vn 0.000000 0.991896 0.127054
vn 0.000000 0.991896 0.127054
vn 0.000000 0.991896 0.127054
vn 0.786781 -0.126450 0.604141
vn 0.786781 -0.126450 0.604141
vn 0.786781 -0.126450 0.604141
vn 0.786781 -0.126450 0.604141
vn 0.000000 -0.991896 0.127054
vn 0.000000 -0.991896 0.127054
vn 0.000000 -0.991896 0.127054
vn 0.000000 -0.991896 0.127054
s off
g CrossBook:Book BookCross
f 1/1/1 26/2/2 27/3/3 3/4/4
f 3/5/5 27/6/6 28/7/7 5/8/8
f 5/8/9 28/7/10 19/9/11 6/10/12
f 6/11/13 19/12/14 20/13/15 8/14/16
f 8/14/17 20/13/18 21/15/19 10/16/20
f 10/16/21 21/15/22 22/17/23 12/18/24
f 12/19/25 22/20/26 23/21/27 14/22/28
f 14/22/29 23/21/30 24/23/31 15/24/32
f 15/25/33 24/26/34 25/27/35 17/28/36
f 17/28/37 25/27/38 26/2/39 1/1/40
f 2/29/41 18/30/42 16/31/43 4/32/44
f 30/33/45 29/34/46 31/35/47 32/36/48
f 32/36/49 31/35/50 33/37/51 34/38/52
f 7/39/53 13/40/54 11/41/55 9/42/56
f 17/28/57 1/1/58 3/5/59 15/24/60
f 15/24/61 3/5/62 5/8/63 14/22/64
f 14/22/65 5/8/66 6/10/67 12/19/68
f 12/19/69 6/10/70 8/14/71 10/16/72
f 19/43/73 7/44/74 9/42/75 20/13/76
f 21/15/77 20/13/78 9/42/79 11/41/80
f 22/17/81 21/15/82 11/41/83 13/45/84
f 36/46/85 35/47/86 33/37/87 31/35/88
f 37/48/89 36/46/90 31/35/91 29/34/92
f 25/27/93 24/26/94 16/49/95 18/30/96
f 26/2/97 25/27/98 18/30/99 2/29/100
f 27/50/101 26/2/102 2/29/103 4/51/104
f 39/52/105 38/53/106 30/33/107 32/36/108
f 40/54/109 39/52/110 32/36/111 34/38/112
f 4/32/113 16/31/114 29/55/115 30/56/116
f 13/40/117 7/39/118 34/57/119 33/58/120
f 23/21/121 22/20/122 35/59/123 36/60/124
f 22/17/125 13/45/126 33/61/127 35/62/128
f 24/23/129 23/21/130 36/60/131 37/63/132
f 16/49/133 24/26/134 37/64/135 29/65/136
f 28/7/137 27/6/138 38/66/139 39/67/140
f 27/50/141 4/51/142 30/68/143 38/69/144
f 19/9/145 28/7/146 39/67/147 40/70/148
f 7/44/149 19/43/150 40/71/151 34/72/152
g default
v -4.407977 -0.483648 6.021457
v 5.120945 -0.483648 6.614691
v 5.120945 -0.351641 6.614691
v -4.407977 -0.351641 6.021457
v 5.907567 -0.351641 -6.020589
v -3.621355 -0.351641 -6.613820
v 5.907567 -0.483648 -6.020589
v -3.621355 -0.483648 -6.613820
vt 0.618402 0.953939
vt 0.865198 0.969140
vt 0.864988 0.972557
vt 0.618190 0.957347
vt 0.911164 0.597509
vt 0.663979 0.591197
vt 0.672348 0.263431
vt 0.919533 0.269743
vt 0.638759 0.623277
vt 0.885557 0.638472
vt 0.885348 0.641885
vt 0.638547 0.626688
vt 0.888762 0.642096
vt 0.868609 0.969350
vt 0.614991 0.953730
vt 0.635133 0.626477
vn -0.062136 0.000000 0.998068
vn -0.062136 0.000000 0.998068
vn -0.062136 0.000000 0.998068
vn -0.062136 0.000000 0.998068
vn 0.000000 1.000000 0.000000
vn 0.000000 1.000000 0.000000
vn 0.000000 1.000000 0.000000
vn 0.000000 1.000000 0.000000
vn 0.062108 0.000000 -0.998069
vn 0.062108 0.000000 -0.998069
vn 0.062108 0.000000 -0.998069
vn 0.062108 0.000000 -0.998069
vn 0.000000 -1.000000 0.000000
vn 0.000000 -1.000000 0.000000
vn 0.000000 -1.000000 0.000000
vn 0.000000 -1.000000 0.000000
vn 0.998069 0.000000 0.062108
vn 0.998069 0.000000 0.062108
vn 0.998069 0.000000 0.062108
vn 0.998069 0.000000 0.062108
vn -0.998069 0.000000 -0.062108
vn -0.998069 0.000000 -0.062108
vn -0.998069 0.000000 -0.062108
vn -0.998069 0.000000 -0.062108
s off
g BookCross CrossBook:BookPaper1
f 41/73/153 42/74/154 43/75/155 44/76/156
f 44/77/157 43/78/158 45/79/159 46/80/160
f 46/81/161 45/82/162 47/83/163 48/84/164
f 48/84/165 47/83/166 42/74/167 41/73/168
f 42/74/169 47/83/170 45/85/171 43/86/172
f 48/84/173 41/73/174 44/87/175 46/88/176
g default
v -0.519188 0.775961 4.447076
v 0.624960 0.775961 4.447076
v 0.624960 1.564323 4.447076
v -0.519188 1.564323 4.447076
v 0.624960 1.564323 -1.106156
v -0.519188 1.564323 -1.106156
v -0.519188 1.564323 -2.192986
v 0.624960 1.564323 -2.192986
v 0.624960 1.564323 -3.785667
v -0.519188 1.564323 -3.785667
v -0.328136 1.432681 -4.690233
v 0.433908 1.432681 -4.690233
v 0.433908 0.907602 -4.690233
v -0.328136 0.907602 -4.690233
v 0.624960 0.775961 -2.192986
v 0.624960 0.775961 -3.785667
v 0.624960 0.775961 -1.106156
v -0.519188 0.775961 -3.785667
v -0.519188 0.775961 -2.192986
v -0.519188 0.775961 -1.106156
v -3.260399 0.922323 -1.991212
v -3.260399 0.922323 -1.307929
v -3.310417 1.417960 -1.307929
v -3.310417 1.417960 -1.991212
v 3.447886 1.401723 -1.330316
v 3.439811 0.938561 -1.330316
v 3.439811 0.938561 -1.968827
v 3.447886 1.401723 -1.968827
v -2.229461 1.564323 -1.106156
v -2.229461 0.775961 -1.106156
v -2.229461 1.564323 -2.192986
v -2.229461 0.775961 -2.192986
v 2.374750 0.775961 -1.106156
v 2.374750 1.564323 -1.106156
v 2.374750 1.564323 -2.192986
v 2.374750 0.775961 -2.192986
vt 0.130469 0.428720
vt 0.158407 0.438597
vt 0.151603 0.457848
vt 0.123661 0.447970
vt 0.103665 0.593447
vt 0.075734 0.583574
vt 0.261667 0.593211
vt 0.230973 0.593207
vt 0.232136 0.552387
vt 0.260515 0.552391
vt 0.256656 0.528962
vt 0.236003 0.528959
vt 0.236435 0.515318
vt 0.256227 0.515321
vt 0.210041 0.591760
vt 0.212639 0.549428
vt 0.170857 0.464656
vt 0.122909 0.600253
vt 0.280014 0.549437
vt 0.282598 0.591771
vt 0.056485 0.576772
vt 0.104407 0.441166
vt 0.545978 0.563473
vt 0.545982 0.581219
vt 0.533030 0.581606
vt 0.533027 0.563093
vt 0.358609 0.581088
vt 0.346565 0.580664
vt 0.346564 0.564079
vt 0.358609 0.563654
vt 0.461136 0.586716
vt 0.431295 0.586741
vt 0.431291 0.557994
vt 0.461131 0.558011
vt 0.462383 0.607650
vt 0.505045 0.585852
vt 0.507840 0.605422
vt 0.505040 0.558858
vt 0.462370 0.537076
vt 0.507828 0.539288
vt 0.429943 0.607713
vt 0.383339 0.605241
vt 0.386427 0.585804
vt 0.429939 0.537022
vt 0.386425 0.558935
vt 0.383335 0.539499
vt 0.534582 0.595191
vt 0.534573 0.549508
vt 0.355904 0.551131
vt 0.355907 0.593612
vt 0.270764 0.525888
vt 0.221894 0.525881
vn 0.000000 0.000000 1.000000
vn 0.000000 0.000000 1.000000
vn 0.000000 0.000000 1.000000
vn 0.000000 0.000000 1.000000
vn 0.000000 1.000000 0.000000
vn 0.000000 1.000000 0.000000
vn 0.000000 1.000000 0.000000
vn 0.000000 1.000000 0.000000
vn 0.000000 1.000000 0.000000
vn 0.000000 1.000000 0.000000
vn 0.000000 0.999104 -0.042331
vn 0.000000 0.999104 -0.042331
vn 0.000000 0.000000 -1.000000
vn 0.000000 0.000000 -1.000000
vn 0.000000 0.000000 -1.000000
vn 0.000000 0.000000 -1.000000
vn 1.000000 0.000000 0.000000
vn 0.998109 0.000000 -0.061468
vn 0.998109 0.000000 -0.061468
vn 1.000000 0.000000 0.000000
vn 1.000000 0.000000 0.000000
vn 1.000000 0.000000 0.000000
vn 1.000000 0.000000 0.000000
vn 1.000000 0.000000 0.000000
vn -0.998109 0.000000 -0.061468
vn -1.000000 0.000000 0.000000
vn -1.000000 0.000000 0.000000
vn -0.998109 0.000000 -0.061468
vn -1.000000 0.000000 0.000000
vn -1.000000 0.000000 0.000000
vn -1.000000 0.000000 0.000000
vn -1.000000 0.000000 0.000000
vn -0.994955 -0.100325 0.000000
vn -0.994955 -0.100325 0.000000
vn -0.994955 -0.100325 0.000000
vn -0.994955 -0.100325 0.000000
vn 0.999848 -0.017427 0.000000
vn 0.999848 -0.017427 0.000000
vn 0.999848 -0.017427 0.000000
vn 0.999848 -0.017427 0.000000
vn 0.000000 1.000000 0.000000
vn 0.000000 1.000000 0.000000
vn 0.000000 1.000000 0.000000
vn 0.000000 1.000000 0.000000
vn 0.000000 0.000000 1.000000
vn 0.000000 0.000000 1.000000
vn -0.058419 -0.002197 0.998290
vn -0.058174 -0.002197 0.998304
vn 0.000000 1.000000 0.000000
vn 0.000000 1.000000 0.000000
vn -0.042301 0.999105 0.000000
vn -0.042301 0.999105 0.000000
vn 0.000000 0.000000 -1.000000
vn 0.000000 0.000000 -1.000000
vn -0.058174 -0.002197 -0.998304
vn -0.058419 -0.002197 -0.998290
vn 0.000000 0.000000 1.000000
vn 0.000000 0.000000 1.000000
vn 0.061742 -0.000336 0.998092
vn 0.061833 -0.000336 0.998087
vn 0.000000 0.000000 -1.000000
vn 0.000000 0.000000 -1.000000
vn 0.061833 -0.000336 -0.998087
vn 0.061742 -0.000336 -0.998092
vn 0.000000 1.000000 0.000000
vn 0.000000 1.000000 0.000000
vn 0.045020 0.998986 0.000000
vn 0.045020 0.998986 0.000000
vn -0.058174 -0.002197 0.998304
vn -0.058419 -0.002197 0.998290
vn -0.187611 -0.007233 0.982217
vn -0.187611 -0.007233 0.982217
vn -0.058419 -0.002197 -0.998290
vn -0.058174 -0.002197 -0.998304
vn -0.187611 -0.007233 -0.982217
vn -0.187611 -0.007233 -0.982217
vn -0.042301 0.999105 0.000000
vn -0.042301 0.999105 0.000000
vn -0.134174 0.990958 0.000000
vn -0.134174 0.990958 0.000000
vn 0.045020 0.998986 0.000000
vn 0.045020 0.998986 0.000000
vn 0.149800 0.988716 0.000000
vn 0.149800 0.988716 0.000000
vn 0.061742 -0.000336 -0.998092
vn 0.061833 -0.000336 -0.998087
vn 0.205141 -0.001251 -0.978732
vn 0.205141 -0.001251 -0.978732
vn 0.061833 -0.000336 0.998087
vn 0.061742 -0.000336 0.998092
vn 0.205141 -0.001251 0.978732
vn 0.205141 -0.001251 0.978732
vn 0.000000 0.999104 -0.042331
vn 0.000000 0.999104 -0.042331
vn 0.000000 0.989579 -0.143993
vn 0.000000 0.989579 -0.143993
vn -0.978427 0.000000 -0.206593
vn -0.998109 0.000000 -0.061468
vn -0.998109 0.000000 -0.061468
vn -0.978427 0.000000 -0.206593
vn 0.998109 0.000000 -0.061468
vn 0.998109 0.000000 -0.061468
vn 0.978427 0.000000 -0.206593
vn 0.978427 0.000000 -0.206593
s off
g BookCross CrossBook:BookCross1
f 49/89/177 50/90/178 51/91/179 52/92/180
f 52/92/181 51/91/182 53/93/183 54/94/184
f 55/95/185 56/96/186 57/97/187 58/98/188
f 59/99/189 60/100/190 61/101/191 62/102/192
f 63/103/193 64/104/194 57/97/195 56/96/196
f 50/105/197 65/106/198 53/93/199 51/91/200
f 66/107/201 67/108/202 55/95/203 58/98/204
f 68/109/205 49/110/206 52/92/207 54/94/208
f 69/111/209 70/112/210 71/113/211 72/114/212
f 73/115/213 74/116/214 75/117/215 76/118/216
f 54/119/217 53/120/218 56/121/219 55/122/220
f 68/123/221 54/119/222 77/124/223 78/125/224
f 54/119/225 55/122/226 79/126/227 77/124/228
f 55/122/229 67/127/230 80/128/231 79/126/232
f 53/120/233 65/129/234 81/130/235 82/131/236
f 63/132/237 56/121/238 83/133/239 84/134/240
f 56/121/241 53/120/242 82/131/243 83/133/244
f 78/125/245 77/124/246 71/113/247 70/135/248
f 79/126/249 80/128/250 69/136/251 72/114/252
f 77/124/253 79/126/254 72/114/255 71/113/256
f 83/133/257 82/131/258 73/115/259 76/118/260
f 84/134/261 83/133/262 76/118/263 75/137/264
f 82/131/265 81/130/266 74/138/267 73/115/268
f 58/98/269 57/97/270 60/100/271 59/99/272
f 62/139/273 66/107/274 58/98/275 59/99/276
f 57/97/277 64/104/278 61/140/279 60/100/280
g default
v -2.947273 -0.065566 7.013781
v 6.476592 -0.065566 5.483057
v 6.476592 0.066440 5.483057
v -2.947273 0.066440 7.013781
v 4.446861 0.066440 -7.012914
v -4.977001 0.066440 -5.482189
v 4.446861 -0.065566 -7.012914
v -4.977001 -0.065566 -5.482189
vt 0.027352 0.982644
vt 0.274623 0.982901
vt 0.274617 0.986325
vt 0.027351 0.986058
vt 0.556743 0.979346
vt 0.309483 0.981075
vt 0.307189 0.653211
vt 0.554449 0.651480
vt 0.027676 0.651342
vt 0.274942 0.651620
vt 0.274935 0.655030
vt 0.027675 0.654770
vt 0.278346 0.655032
vt 0.278051 0.982905
vt 0.023930 0.982640
vt 0.024258 0.654767
vn 0.160329 0.000000 0.987064
vn 0.160329 0.000000 0.987064
vn 0.160329 0.000000 0.987064
vn 0.160329 0.000000 0.987064
vn 0.000000 1.000000 0.000000
vn 0.000000 1.000000 0.000000
vn 0.000000 1.000000 0.000000
vn 0.000000 1.000000 0.000000
vn -0.160270 0.000000 -0.987073
vn -0.160270 0.000000 -0.987073
vn -0.160270 0.000000 -0.987073
vn -0.160270 0.000000 -0.987073
vn 0.000000 -1.000000 0.000000
vn 0.000000 -1.000000 0.000000
vn 0.000000 -1.000000 0.000000
vn 0.000000 -1.000000 0.000000
vn 0.987073 0.000000 -0.160270
vn 0.987073 0.000000 -0.160270
vn 0.987073 0.000000 -0.160270
vn 0.987073 0.000000 -0.160270
vn -0.987073 0.000000 0.160270
vn -0.987073 0.000000 0.160270
vn -0.987073 0.000000 0.160270
vn -0.987073 0.000000 0.160270
s off
g BookCross CrossBook:BookPaper
f 85/141/281 86/142/282 87/143/283 88/144/284
f 88/145/285 87/146/286 89/147/287 90/148/288
f 90/149/289 89/150/290 91/151/291 92/152/292
f 92/152/293 91/151/294 86/142/295 85/141/296
f 86/142/297 91/151/298 89/153/299 87/154/300
f 92/152/301 85/141/302 88/155/303 90/156/304
