# This file uses centimeters as units for non-parametric coordinates.

g default
v 14.082000 0.643000 1.350164
v 14.624569 0.643000 1.350164
v 14.624569 10.920768 1.350164
v 14.082000 10.920768 1.350164
v 14.624569 10.920768 0.892252
v 14.082000 10.920768 0.892252
v 14.624569 0.643000 0.892252
v 14.082000 0.643000 0.892252
vt 0.968695 0.100404
vt 0.968821 0.124574
vt 0.511074 0.126895
vt 0.510948 0.102743
vt 0.490459 0.082546
vt 0.490275 0.058381
vt 0.510685 0.058218
vt 0.510839 0.082373
vt 0.968442 0.055831
vt 0.968581 0.080006
vt 0.968329 0.035424
vt 0.510581 0.037830
vn 0.000000 0.000000 1.000000
vn 0.000000 0.000000 1.000000
vn 0.000000 0.000000 1.000000
vn 0.000000 0.000000 1.000000
vn 0.000000 1.000000 0.000000
vn 0.000000 1.000000 0.000000
vn 0.000000 1.000000 0.000000
vn 0.000000 1.000000 0.000000
vn 0.000000 0.000000 -1.000000
vn 0.000000 0.000000 -1.000000
vn 0.000000 0.000000 -1.000000
vn 0.000000 0.000000 -1.000000
vn 1.000000 0.000000 0.000000
vn 1.000000 0.000000 0.000000
vn 1.000000 0.000000 0.000000
vn 1.000000 0.000000 0.000000
vn -1.000000 0.000000 0.000000
vn -1.000000 0.000000 0.000000
vn -1.000000 0.000000 0.000000
vn -1.000000 0.000000 0.000000
s off
g PotionBrewer:HolderPotionMaker
f 1/1/1 2/2/2 3/3/3 4/4/4
f 4/5/5 3/6/6 5/7/7 6/8/8
f 6/8/9 5/7/10 7/9/11 8/10/12
f 2/11/13 7/9/14 5/7/15 3/12/16
f 8/10/17 1/1/18 4/4/19 6/8/20
g default
v 14.082000 0.643000 -0.897000
v 14.624569 0.643000 -0.897000
v 14.082000 10.920768 -0.897000
v 14.624569 10.920768 -0.897000
v 14.082000 10.920768 -1.354909
v 14.624569 10.920768 -1.354909
v 14.082000 0.643000 -1.354909
v 14.624569 0.643000 -1.354909
vt 0.528460 0.168624
vt 0.552620 0.169165
vt 0.542349 0.626794
vt 0.518197 0.626254
vt 0.497386 0.646180
vt 0.473227 0.645671
vt 0.473650 0.625272
vt 0.497808 0.625799
vt 0.483925 0.167638
vt 0.508083 0.168174
vt 0.463525 0.167184
vt 0.453268 0.624814
vn 0.000000 0.000000 1.000000
vn 0.000000 0.000000 1.000000
vn 0.000000 0.000000 1.000000
vn 0.000000 0.000000 1.000000
vn 0.000000 1.000000 0.000000
vn 0.000000 1.000000 0.000000
vn 0.000000 1.000000 0.000000
vn 0.000000 1.000000 0.000000
vn 0.000000 0.000000 -1.000000
vn 0.000000 0.000000 -1.000000
vn 0.000000 0.000000 -1.000000
vn 0.000000 0.000000 -1.000000
vn 1.000000 0.000000 0.000000
vn 1.000000 0.000000 0.000000
vn 1.000000 0.000000 0.000000
vn 1.000000 0.000000 0.000000
vn -1.000000 0.000000 0.000000
vn -1.000000 0.000000 0.000000
vn -1.000000 0.000000 0.000000
vn -1.000000 0.000000 0.000000
s off
g PotionBrewer:Holder1PotionMaker
f 9/13/21 10/14/22 12/15/23 11/16/24
f 11/17/25 12/18/26 14/19/27 13/20/28
f 13/20/29 14/19/30 16/21/31 15/22/32
f 10/23/33 16/21/34 14/19/35 12/24/36
f 15/22/37 9/13/38 11/16/39 13/20/40
g default
v 12.733097 0.568358 1.616405
v 15.991935 0.568358 1.616405
v 15.991935 0.967534 1.616405
v 12.733097 0.967534 1.616405
v 15.991935 0.967534 -1.616543
v 12.733097 0.967534 -1.616543
v 15.991935 0.568358 -1.616543
v 12.733097 0.568358 -1.616543
vt 0.958686 0.348083
vt 0.813551 0.348200
vt 0.813536 0.330421
vt 0.958671 0.330308
vt 0.813429 0.186439
vt 0.958564 0.186328
vt 0.813414 0.168662
vt 0.958548 0.168549
vt 0.588980 0.171039
vt 0.734115 0.171039
vt 0.734115 0.315020
vt 0.588980 0.315020
vt 0.795758 0.330434
vt 0.795653 0.186453
vt 0.976342 0.186312
vt 0.976447 0.330294
vn 0.000000 0.000000 1.000000
vn 0.000000 0.000000 1.000000
vn 0.000000 0.000000 1.000000
vn 0.000000 0.000000 1.000000
vn 0.000000 1.000000 0.000000
vn 0.000000 1.000000 0.000000
vn 0.000000 1.000000 0.000000
vn 0.000000 1.000000 0.000000
vn 0.000000 0.000000 -1.000000
vn 0.000000 0.000000 -1.000000
vn 0.000000 0.000000 -1.000000
vn 0.000000 0.000000 -1.000000
vn 0.000000 -1.000000 0.000000
vn 0.000000 -1.000000 0.000000
vn 0.000000 -1.000000 0.000000
vn 0.000000 -1.000000 0.000000
vn 1.000000 0.000000 0.000000
vn 1.000000 0.000000 0.000000
vn 1.000000 0.000000 0.000000
vn 1.000000 0.000000 0.000000
vn -1.000000 0.000000 0.000000
vn -1.000000 0.000000 0.000000
vn -1.000000 0.000000 0.000000
vn -1.000000 0.000000 0.000000
s off
g PotionBrewer:BottomMiddlePotionMaker
f 17/25/41 18/26/42 19/27/43 20/28/44
f 20/28/45 19/27/46 21/29/47 22/30/48
f 22/30/49 21/29/50 23/31/51 24/32/52
f 24/33/53 23/34/54 18/35/55 17/36/56
f 18/37/57 23/38/58 21/29/59 19/27/60
f 24/39/61 17/40/62 20/28/63 22/30/64
g default
v 15.049720 0.720768 -0.396826
v 14.759272 0.720768 -0.687274
v 14.759272 11.528779 -0.687274
v 15.049720 11.528779 -0.396826
v 14.362515 0.720768 -0.793585
v 14.362515 11.528779 -0.793585
v 13.965759 0.720768 -0.687274
v 13.965759 11.528779 -0.687274
v 13.675315 0.720768 -0.396826
v 13.675315 11.528779 -0.396826
v 13.569003 0.720768 -0.000069
v 13.569003 11.528779 -0.000069
v 13.675315 0.720768 0.396688
v 13.675315 11.528779 0.396688
v 13.965759 0.720768 0.687135
v 13.965759 11.528779 0.687135
v 14.362515 0.720768 0.793445
v 14.362515 11.528779 0.793445
v 14.759272 0.720768 0.687135
v 14.759272 11.528779 0.687135
v 15.049720 0.720768 0.396688
v 15.049720 11.528779 0.396688
v 15.156029 0.720768 -0.000069
v 15.156029 11.528779 -0.000069
v 14.362515 11.528779 -0.000069
vt 0.361153 0.034342
vt 0.379500 0.034244
vt 0.382107 0.515496
vt 0.363851 0.515593
vt 0.397819 0.034148
vt 0.400381 0.515400
vt 0.177811 0.035486
vt 0.196126 0.035355
vt 0.199530 0.516601
vt 0.181255 0.516731
vt 0.214470 0.035230
vt 0.217788 0.516476
vt 0.232813 0.035109
vt 0.236044 0.516356
vt 0.251148 0.034991
vt 0.254302 0.516239
vt 0.269480 0.034876
vt 0.272562 0.516124
vt 0.287814 0.034764
vt 0.290819 0.516013
vt 0.306154 0.034654
vt 0.309073 0.515904
vt 0.324479 0.034548
vt 0.327336 0.515797
vt 0.342807 0.034443
vt 0.345597 0.515693
vt 0.373156 0.549672
vt 0.391418 0.549577
vt 0.190636 0.550793
vt 0.208893 0.550667
vt 0.227140 0.550544
vt 0.245391 0.550426
vt 0.263646 0.550309
vt 0.281898 0.550197
vt 0.300148 0.550086
vt 0.318403 0.549979
vt 0.336660 0.549873
vt 0.354909 0.549771
vn 0.866026 0.000000 -0.499999
vn 0.500001 0.000000 -0.866025
vn 0.499767 0.030577 -0.865620
vn 0.865621 0.030577 -0.499765
vn 0.000000 0.000000 -1.000000
vn 0.000000 0.030551 -0.999533
vn -0.500029 0.000000 -0.866009
vn -0.499798 0.030553 -0.865603
vn -0.866009 0.000000 -0.500029
vn -0.865603 0.030553 -0.499798
vn -1.000000 0.000000 0.000000
vn -0.999533 0.030551 0.000000
vn -0.866009 0.000000 0.500029
vn -0.865603 0.030553 0.499798
vn -0.500029 0.000000 0.866009
vn -0.499798 0.030553 0.865603
vn 0.000000 0.000000 1.000000
vn 0.000000 0.030551 0.999533
vn 0.500029 0.000000 0.866009
vn 0.499798 0.030553 0.865603
vn 0.866009 0.000000 0.500029
vn 0.865603 0.030553 0.499798
vn 1.000000 0.000000 0.000000
vn 0.999533 0.030551 0.000000
vn 0.000000 1.000000 0.000000
s 1
g PotionBrewer:MiddlePotionMaker
f 25/41/65 26/42/66 27/43/67 28/44/68
f 26/42/66 29/45/69 30/46/70 27/43/67
f 29/47/69 31/48/71 32/49/72 30/50/70
f 31/48/71 33/51/73 34/52/74 32/49/72
f 33/51/73 35/53/75 36/54/76 34/52/74
f 35/53/75 37/55/77 38/56/78 36/54/76
f 37/55/77 39/57/79 40/58/80 38/56/78
f 39/57/79 41/59/81 42/60/82 40/58/80
f 41/59/81 43/61/83 44/62/84 42/60/82
f 43/61/83 45/63/85 46/64/86 44/62/84
f 45/63/85 47/65/87 48/66/88 46/64/86
f 47/65/87 25/41/65 28/44/68 48/66/88
f 28/44/68 27/43/67 49/67/89
f 27/43/67 30/46/70 49/68/89
f 30/50/70 32/49/72 49/69/89
f 32/49/72 34/52/74 49/70/89
f 34/52/74 36/54/76 49/71/89
f 36/54/76 38/56/78 49/72/89
f 38/56/78 40/58/80 49/73/89
f 40/58/80 42/60/82 49/74/89
f 42/60/82 44/62/84 49/75/89
f 44/62/84 46/64/86 49/76/89
f 46/64/86 48/66/88 49/77/89
f 48/66/88 28/44/68 49/78/89
g default
v 14.082000 8.414370 4.108173
v 14.624569 8.414370 4.108173
v 14.624569 8.414370 4.596117
v 14.082000 8.414370 4.596117
v 14.082000 10.629327 4.596117
v 14.624569 10.629327 4.596117
v 14.624569 11.087235 4.596117
v 14.082000 11.087235 4.596117
v 14.082000 11.741522 4.596117
v 14.624569 11.741522 4.596117
v 14.624569 11.741522 4.108173
v 14.082000 11.741522 4.108173
v 14.624569 10.629327 4.108173
v 14.624569 11.087235 4.108173
v 14.082000 11.087235 4.108173
v 14.082000 10.629327 4.108173
v 14.082000 11.087235 -4.471588
v 14.624569 11.087235 -4.471588
v 14.624569 10.629327 -4.471588
v 14.082000 10.629327 -4.471588
v 14.082000 10.629327 -4.014465
v 14.082000 11.087235 -4.014465
v 14.082000 8.414370 -4.471588
v 14.624569 8.414370 -4.471588
v 14.624569 8.414370 -4.014465
v 14.082000 8.414370 -4.014465
v 14.624569 11.087235 -4.014465
v 14.624569 10.629327 -4.014465
v 14.082000 11.741522 -4.014465
v 14.624569 11.741522 -4.014465
v 14.624569 11.741522 -4.471588
v 14.082000 11.741522 -4.471588
vt 0.098311 0.230208
vt 0.074150 0.230576
vt 0.073818 0.208849
vt 0.097978 0.208478
vt 0.096463 0.109844
vt 0.072301 0.110218
vt 0.071987 0.089828
vt 0.096149 0.089453
vt 0.100512 0.387182
vt 0.107235 0.410392
vt 0.086364 0.416437
vt 0.079638 0.393228
vt 0.050572 0.110551
vt 0.050259 0.090161
vt 0.117878 0.089116
vt 0.118192 0.109510
vt 0.191595 0.667926
vt 0.192382 0.643775
vt 0.212764 0.644437
vt 0.211977 0.668590
vt 0.211312 0.688938
vt 0.190929 0.688274
vt 0.310567 0.671809
vt 0.311356 0.647658
vt 0.331705 0.648319
vt 0.330912 0.672470
vt 0.193045 0.623427
vt 0.213428 0.624089
vt 0.083059 0.483408
vt 0.081686 0.507532
vt 0.061359 0.506371
vt 0.062736 0.482247
vt 0.077793 0.615780
vt 0.098187 0.615781
vt 0.098181 0.977527
vt 0.077787 0.977526
vt 0.122350 0.615782
vt 0.122344 0.977527
vt 0.033236 0.615779
vt 0.053630 0.615779
vt 0.053624 0.977525
vt 0.033230 0.977524
vt 0.071537 0.060693
vt 0.095695 0.060318
vt 0.049810 0.061026
vt 0.058378 0.424550
vt 0.051650 0.401342
vt 0.117422 0.059979
vt 0.112150 0.485061
vt 0.110779 0.509186
vt 0.163259 0.642826
vt 0.163921 0.622479
vt 0.162472 0.666974
vt 0.161805 0.687319
vt 0.099798 0.328843
vt 0.075637 0.329208
vt 0.052089 0.209184
vt 0.119705 0.208143
vt 0.312021 0.627313
vt 0.430298 0.651572
vt 0.429501 0.675723
vt 0.309904 0.692158
vn 0.000000 -1.000000 0.000000
vn 0.000000 -1.000000 0.000000
vn 0.000000 -1.000000 0.000000
vn 0.000000 -1.000000 0.000000
vn 0.000000 0.000000 1.000000
vn 0.000000 0.000000 1.000000
vn 0.000000 0.000000 1.000000
vn 0.000000 0.000000 1.000000
vn 0.000000 1.000000 0.000000
vn 0.000000 1.000000 0.000000
vn 0.000000 1.000000 0.000000
vn 0.000000 1.000000 0.000000
vn 1.000000 0.000000 0.000000
vn 1.000000 0.000000 0.000000
vn 1.000000 0.000000 0.000000
vn 1.000000 0.000000 0.000000
vn -1.000000 0.000000 0.000000
vn -1.000000 0.000000 0.000000
vn -1.000000 0.000000 0.000000
vn -1.000000 0.000000 0.000000
vn 0.000000 0.000000 -1.000000
vn 0.000000 0.000000 -1.000000
vn 0.000000 0.000000 -1.000000
vn 0.000000 0.000000 -1.000000
vn -1.000000 0.000000 0.000000
vn -1.000000 0.000000 0.000000
vn -1.000000 0.000000 0.000000
vn -1.000000 0.000000 0.000000
vn 0.000000 -1.000000 0.000000
vn 0.000000 -1.000000 0.000000
vn 0.000000 -1.000000 0.000000
vn 0.000000 -1.000000 0.000000
vn 1.000000 0.000000 0.000000
vn 1.000000 0.000000 0.000000
vn 1.000000 0.000000 0.000000
vn 1.000000 0.000000 0.000000
vn 0.000000 1.000000 0.000000
vn 0.000000 1.000000 0.000000
vn 0.000000 1.000000 0.000000
vn 0.000000 1.000000 0.000000
vn -1.000000 0.000000 0.000000
vn -1.000000 0.000000 0.000000
vn -1.000000 0.000000 0.000000
vn -1.000000 0.000000 0.000000
vn 0.000000 -1.000000 0.000000
vn 0.000000 -1.000000 0.000000
vn 0.000000 -1.000000 0.000000
vn 0.000000 -1.000000 0.000000
vn 1.000000 0.000000 0.000000
vn 1.000000 0.000000 0.000000
vn 1.000000 0.000000 0.000000
vn 1.000000 0.000000 0.000000
vn 0.000000 1.000000 0.000000
vn 0.000000 1.000000 0.000000
vn 0.000000 1.000000 0.000000
vn 0.000000 1.000000 0.000000
vn 0.000000 0.000000 1.000000
vn 0.000000 0.000000 1.000000
vn 0.000000 0.000000 1.000000
vn 0.000000 0.000000 1.000000
vn 1.000000 0.000000 0.000000
vn 1.000000 0.000000 0.000000
vn 1.000000 0.000000 0.000000
vn 1.000000 0.000000 0.000000
vn 0.000000 0.000000 -1.000000
vn 0.000000 0.000000 -1.000000
vn 0.000000 0.000000 -1.000000
vn 0.000000 0.000000 -1.000000
vn -1.000000 0.000000 0.000000
vn -1.000000 0.000000 0.000000
vn -1.000000 0.000000 0.000000
vn -1.000000 0.000000 0.000000
vn 0.000000 0.000000 1.000000
vn 0.000000 0.000000 1.000000
vn 0.000000 0.000000 1.000000
vn 0.000000 0.000000 1.000000
vn 1.000000 0.000000 0.000000
vn 1.000000 0.000000 0.000000
vn 1.000000 0.000000 0.000000
vn 1.000000 0.000000 0.000000
vn 0.000000 0.000000 -1.000000
vn 0.000000 0.000000 -1.000000
vn 0.000000 0.000000 -1.000000
vn 0.000000 0.000000 -1.000000
vn -1.000000 0.000000 0.000000
vn -1.000000 0.000000 0.000000
vn -1.000000 0.000000 0.000000
vn -1.000000 0.000000 0.000000
vn 0.000000 0.000000 -1.000000
vn 0.000000 0.000000 -1.000000
vn 0.000000 0.000000 -1.000000
vn 0.000000 0.000000 -1.000000
vn 1.000000 0.000000 0.000000
vn 1.000000 0.000000 0.000000
vn 1.000000 0.000000 0.000000
vn 1.000000 0.000000 0.000000
vn 0.000000 0.000000 1.000000
vn 0.000000 0.000000 1.000000
vn 0.000000 0.000000 1.000000
vn 0.000000 0.000000 1.000000
vn -1.000000 0.000000 0.000000
vn -1.000000 0.000000 0.000000
vn -1.000000 0.000000 0.000000
vn -1.000000 0.000000 0.000000
vn 0.000000 0.000000 -1.000000
vn 0.000000 0.000000 -1.000000
vn 0.000000 0.000000 -1.000000
vn 0.000000 0.000000 -1.000000
vn 1.000000 0.000000 0.000000
vn 1.000000 0.000000 0.000000
vn 1.000000 0.000000 0.000000
vn 1.000000 0.000000 0.000000
vn 0.000000 0.000000 1.000000
vn 0.000000 0.000000 1.000000
vn 0.000000 0.000000 1.000000
vn 0.000000 0.000000 1.000000
vn -1.000000 0.000000 0.000000
vn -1.000000 0.000000 0.000000
vn -1.000000 0.000000 0.000000
vn -1.000000 0.000000 0.000000
s off
g PotionBrewer:DripperPotionMaker
f 50/79/90 51/80/91 52/81/92 53/82/93
f 54/83/94 55/84/95 56/85/96 57/86/97
f 58/87/98 59/88/99 60/89/100 61/90/101
f 62/91/102 63/92/103 56/85/104 55/84/105
f 64/93/106 65/94/107 54/83/108 57/86/109
f 66/95/110 67/96/111 68/97/112 69/98/113
f 66/95/114 69/98/115 70/99/116 71/100/117
f 72/101/118 73/102/119 74/103/120 75/104/121
f 68/97/122 67/96/123 76/105/124 77/106/125
f 78/107/126 79/108/127 80/109/128 81/110/129
f 71/111/130 70/112/131 65/113/132 64/114/133
f 70/112/134 77/115/135 62/116/136 65/113/137
f 77/117/138 76/118/139 63/119/140 62/120/141
f 64/114/142 63/119/143 76/118/144 71/111/145
f 57/86/146 56/85/147 59/121/148 58/122/149
f 56/85/150 63/92/151 60/123/152 59/121/153
f 63/124/154 64/125/155 61/90/156 60/89/157
f 64/93/158 57/86/159 58/122/160 61/126/161
f 71/127/162 76/128/163 79/108/164 78/107/165
f 76/105/166 67/96/167 80/129/168 79/130/169
f 67/96/170 66/95/171 81/131/172 80/129/173
f 66/95/174 71/100/175 78/132/176 81/131/177
f 65/133/178 62/134/179 51/80/180 50/79/181
f 62/91/182 55/84/183 52/81/184 51/135/185
f 55/84/186 54/83/187 53/82/188 52/81/189
f 54/83/190 65/94/191 50/136/192 53/82/193
f 69/98/194 68/97/195 73/102/196 72/101/197
f 68/97/198 77/106/199 74/137/200 73/102/201
f 77/138/202 70/139/203 75/104/204 74/103/205
f 70/99/206 69/98/207 72/101/208 75/140/209
g default
v 13.544301 10.662042 1.422017
v 15.180732 10.662042 1.422017
v 15.180732 11.061221 1.422017
v 13.544301 11.061221 1.422017
v 15.180732 11.061221 -1.422157
v 13.544301 11.061221 -1.422157
v 15.180732 10.662042 -1.422157
v 13.544301 10.662042 -1.422157
vt 0.677101 0.394784
vt 0.604220 0.394567
vt 0.604274 0.376787
vt 0.677153 0.377009
vt 0.676581 0.665814
vt 0.603702 0.665759
vt 0.603796 0.539070
vt 0.676675 0.539168
vt 0.603824 0.521247
vt 0.676704 0.521437
vt 0.586041 0.521184
vt 0.586447 0.394517
vt 0.694883 0.394833
vt 0.694475 0.521500
vn 0.000000 0.000000 1.000000
vn 0.000000 0.000000 1.000000
vn 0.000000 0.000000 1.000000
vn 0.000000 0.000000 1.000000
vn 0.000000 1.000000 0.000000
vn 0.000000 1.000000 0.000000
vn 0.000000 1.000000 0.000000
vn 0.000000 1.000000 0.000000
vn 0.000000 0.000000 -1.000000
vn 0.000000 0.000000 -1.000000
vn 0.000000 0.000000 -1.000000
vn 0.000000 0.000000 -1.000000
vn 0.000000 -1.000000 0.000000
vn 0.000000 -1.000000 0.000000
vn 0.000000 -1.000000 0.000000
vn 0.000000 -1.000000 0.000000
vn 1.000000 0.000000 0.000000
vn 1.000000 0.000000 0.000000
vn 1.000000 0.000000 0.000000
vn 1.000000 0.000000 0.000000
vn -1.000000 0.000000 0.000000
vn -1.000000 0.000000 0.000000
vn -1.000000 0.000000 0.000000
vn -1.000000 0.000000 0.000000
s off
g PotionBrewer:PotionMakerTop
f 82/141/210 83/142/211 84/143/212 85/144/213
f 85/145/214 84/146/215 86/147/216 87/148/217
f 87/148/218 86/147/219 88/149/220 89/150/221
f 89/150/222 88/149/223 83/142/224 82/141/225
f 83/142/226 88/149/227 86/151/228 84/152/229
f 89/150/230 82/141/231 85/153/232 87/154/233
g default
v 11.932965 0.650693 6.925268
v 16.792067 0.650693 6.925268
v 16.792067 0.906078 6.925268
v 11.932965 0.906078 6.925268
v 12.390472 1.131660 6.427062
v 16.334560 1.131660 6.427062
v 16.334560 1.131660 2.132098
v 12.390472 1.131660 2.132098
v 11.932965 0.906078 1.633890
v 16.792067 0.906078 1.633890
v 16.792067 0.650693 1.633890
v 11.932965 0.650693 1.633890
vt 0.944634 0.957862
vt 0.728230 0.958167
vt 0.728214 0.946795
vt 0.944618 0.946487
vt 0.924207 0.922158
vt 0.748555 0.922413
vt 0.748265 0.731133
vt 0.923920 0.730879
vt 0.944259 0.706497
vt 0.727855 0.706804
vt 0.727839 0.695429
vt 0.944243 0.695124
vt 0.427681 0.739552
vt 0.644084 0.739552
vt 0.644084 0.975206
vt 0.427681 0.975206
vt 0.714507 0.944655
vt 0.714130 0.709000
vt 0.725506 0.708981
vt 0.725879 0.944637
vt 0.957982 0.708640
vt 0.958326 0.944295
vt 0.946956 0.944312
vt 0.946606 0.708656
vn 0.000000 0.000000 1.000000
vn 0.000000 0.000000 1.000000
vn 0.000000 0.000000 1.000000
vn 0.000000 0.000000 1.000000
vn 0.000000 1.000000 0.000000
vn 0.000000 1.000000 0.000000
vn 0.000000 1.000000 0.000000
vn 0.000000 1.000000 0.000000
vn 0.000000 0.686392 -0.727232
vn 0.000000 0.686392 -0.727232
vn 0.000000 0.000000 -1.000000
vn 0.000000 0.000000 -1.000000
vn 0.000000 -1.000000 0.000000
vn 0.000000 -1.000000 0.000000
vn 0.000000 -1.000000 0.000000
vn 0.000000 -1.000000 0.000000
vn 1.000000 0.000000 0.000000
vn 1.000000 0.000000 0.000000
vn 0.755686 0.654934 0.000000
vn 0.755686 0.654934 0.000000
vn -1.000000 0.000000 0.000000
vn -1.000000 0.000000 0.000000
vn -0.755686 0.654934 0.000000
vn -0.755686 0.654934 0.000000
vn 0.000000 0.686392 0.727232
vn 0.000000 0.686392 0.727232
vn 0.000000 0.910979 0.412453
vn 0.000000 0.910979 0.412453
vn 0.755686 0.654934 0.000000
vn 0.755686 0.654934 0.000000
vn 0.442262 0.896886 0.000000
vn 0.442262 0.896886 0.000000
vn 0.000000 0.686392 -0.727232
vn 0.000000 0.686392 -0.727232
vn 0.000000 0.910979 -0.412453
vn 0.000000 0.910979 -0.412453
vn -0.755686 0.654934 0.000000
vn -0.755686 0.654934 0.000000
vn -0.442262 0.896886 0.000000
vn -0.442262 0.896886 0.000000
s off
g PotionBrewer:PotionMakerPotionPlatter
f 90/155/234 91/156/235 92/157/236 93/158/237
f 94/159/238 95/160/239 96/161/240 97/162/241
f 98/163/242 99/164/243 100/165/244 101/166/245
f 101/167/246 100/168/247 91/169/248 90/170/249
f 91/171/250 100/172/251 99/173/252 92/174/253
f 101/175/254 90/176/255 93/177/256 98/178/257
f 93/158/258 92/157/259 95/160/260 94/159/261
f 92/174/262 99/173/263 96/161/264 95/160/265
f 99/164/266 98/163/267 97/162/268 96/161/269
f 98/178/270 93/177/271 94/159/272 97/162/273
g default
v 11.932965 0.650693 -1.531646
v 16.792067 0.650693 -1.531646
v 16.792067 0.906078 -1.531646
v 11.932965 0.906078 -1.531646
v 12.390472 1.131660 -2.029853
v 16.334560 1.131660 -2.029853
v 16.334560 1.131660 -6.324819
v 12.390472 1.131660 -6.324819
v 11.932965 0.906078 -6.823026
v 16.792067 0.906078 -6.823026
v 16.792067 0.650693 -6.823026
v 11.932965 0.650693 -6.823026
vt 0.958201 0.651065
vt 0.741797 0.651367
vt 0.741782 0.639995
vt 0.958186 0.639690
vt 0.937779 0.615360
vt 0.762125 0.615612
vt 0.761841 0.424333
vt 0.937492 0.424081
vt 0.957836 0.399699
vt 0.741432 0.400004
vt 0.741416 0.388629
vt 0.957821 0.388327
vt 0.175144 0.737564
vt 0.391548 0.737564
vt 0.391548 0.973218
vt 0.175144 0.973218
vt 0.728067 0.637848
vt 0.727717 0.402193
vt 0.739089 0.402177
vt 0.739442 0.637833
vt 0.971540 0.401841
vt 0.971914 0.637496
vt 0.960539 0.637514
vt 0.960168 0.401859
vn 0.000000 0.000000 1.000000
vn 0.000000 0.000000 1.000000
vn 0.000000 0.000000 1.000000
vn 0.000000 0.000000 1.000000
vn 0.000000 1.000000 0.000000
vn 0.000000 1.000000 0.000000
vn 0.000000 1.000000 0.000000
vn 0.000000 1.000000 0.000000
vn 0.000000 0.686392 -0.727232
vn 0.000000 0.686392 -0.727232
vn 0.000000 0.000000 -1.000000
vn 0.000000 0.000000 -1.000000
vn 0.000000 -1.000000 0.000000
vn 0.000000 -1.000000 0.000000
vn 0.000000 -1.000000 0.000000
vn 0.000000 -1.000000 0.000000
vn 1.000000 0.000000 0.000000
vn 1.000000 0.000000 0.000000
vn 0.755686 0.654934 0.000000
vn 0.755686 0.654934 0.000000
vn -1.000000 0.000000 0.000000
vn -1.000000 0.000000 0.000000
vn -0.755686 0.654934 0.000000
vn -0.755686 0.654934 0.000000
vn 0.000000 0.686392 0.727232
vn 0.000000 0.686392 0.727232
vn 0.000000 0.910979 0.412453
vn 0.000000 0.910979 0.412453
vn 0.755686 0.654934 0.000000
vn 0.755686 0.654934 0.000000
vn 0.442262 0.896886 0.000000
vn 0.442262 0.896886 0.000000
vn 0.000000 0.686392 -0.727232
vn 0.000000 0.686392 -0.727232
vn 0.000000 0.910979 -0.412453
vn 0.000000 0.910979 -0.412453
vn -0.755686 0.654934 0.000000
vn -0.755686 0.654934 0.000000
vn -0.442262 0.896886 0.000000
vn -0.442262 0.896886 0.000000
s off
g PotionBrewer:PotionMakerPotionPlatter1
f 102/179/274 103/180/275 104/181/276 105/182/277
f 106/183/278 107/184/279 108/185/280 109/186/281
f 110/187/282 111/188/283 112/189/284 113/190/285
f 113/191/286 112/192/287 103/193/288 102/194/289
f 103/195/290 112/196/291 111/197/292 104/198/293
f 113/199/294 102/200/295 105/201/296 110/202/297
f 105/182/298 104/181/299 107/184/300 106/183/301
f 104/198/302 111/197/303 108/185/304 107/184/305
f 111/188/306 110/187/307 109/186/308 108/185/309
f 110/202/310 105/201/311 106/183/312 109/186/313
