# This file uses centimeters as units for non-parametric coordinates.

mtllib torch2.mtl
g default
v 0.061969 0.000000 -0.107334
v -0.061969 0.000000 -0.107334
v -0.123939 0.000000 -0.000000
v -0.061969 0.000000 0.107334
v 0.061969 0.000000 0.107334
v 0.123939 0.000000 0.000000
v 0.061969 3.707585 -0.107334
v -0.061969 3.707585 -0.107334
v -0.123939 3.707585 -0.000000
v -0.061969 3.707585 0.107334
v 0.061969 3.707585 0.107334
v 0.123939 3.707585 0.000000
v 0.000000 0.000000 0.000000
v -0.027159 2.224551 -0.107334
v 0.034810 2.224551 0.000000
v -0.027159 2.224551 0.107334
v -0.151098 2.224551 0.107334
v -0.213068 2.224551 -0.000000
v -0.151098 2.224551 -0.107334
v 0.094054 3.902795 -0.162906
v -0.094054 3.902795 -0.162906
v -0.188107 3.902795 -0.000000
v -0.094054 3.902795 0.162906
v 0.094054 3.902795 0.162906
v 0.188107 3.902795 0.000000
v 0.084509 4.045599 -0.146374
v -0.084509 4.045599 -0.146374
v -0.000000 4.045599 -0.000000
v -0.169018 4.045599 -0.000000
v -0.084509 4.045599 0.146374
v 0.084509 4.045599 0.146374
v 0.169018 4.045599 0.000000
vt 0.651769 0.000010
vt 0.618517 0.000010
vt 0.601892 0.028807
vt 0.618517 0.057603
vt 0.651769 0.057603
vt 0.668394 0.028807
vt 0.010237 0.000009
vt 0.043455 0.001665
vt 0.076746 0.002663
vt 0.110050 0.002359
vt 0.143294 0.001394
vt 0.176528 0.001084
vt 0.209748 0.002096
vt 0.000000 0.997385
vt 0.033220 0.995763
vt 0.066544 0.995127
vt 0.099848 0.996421
vt 0.133029 0.998700
vt 0.166229 1.000000
vt 0.199447 0.999328
vt 0.287528 0.227533
vt 0.285872 0.261429
vt 0.234952 0.093093
vt 0.254909 0.123699
vt 0.270672 0.156994
vt 0.281752 0.191959
vt 0.635143 0.028807
vt 0.452066 0.043415
vt 0.203574 0.600061
vt 0.004243 0.597987
vt 0.170301 0.599807
vt 0.137030 0.599373
vt 0.103826 0.598851
vt 0.070639 0.598417
vt 0.037450 0.598158
vt 0.322283 0.137773
vt 0.303004 0.096761
vt 0.278143 0.057961
vt 0.342188 0.275499
vt 0.342058 0.226754
vt 0.335478 0.181139
vt 0.465181 0.000008
vt 0.336596 0.078833
vt 0.309922 0.037545
vt 0.383352 0.269373
vt 0.380402 0.221292
vt 0.372641 0.171953
vt 0.421031 0.010354
vt 0.357931 0.123973
vt 0.407917 0.053762
vt 0.282552 0.000000
vt 0.438952 0.086823
vt 0.483101 0.076477
vt 0.247754 0.019922
vt 0.496216 0.033069
vt 0.211090 0.067134
vn 0.000000 0.000000 -1.000000
vn 0.000000 0.000000 -1.000000
vn 0.000000 0.000000 -1.000000
vn 0.000000 -0.000000 -1.000000
vn -0.865504 -0.034677 -0.499700
vn -0.865504 -0.034677 -0.499700
vn -0.866025 -0.001317 -0.500000
vn -0.866025 0.000904 -0.500000
vn -0.865505 -0.034677 0.499699
vn -0.865505 -0.034677 0.499699
vn -0.866025 0.000904 0.500000
vn -0.866025 -0.001317 0.499999
vn -0.000000 -0.000000 1.000000
vn -0.000000 -0.000000 1.000000
vn -0.000000 0.000000 1.000000
vn -0.000000 -0.000000 1.000000
vn 0.865505 0.034677 0.499699
vn 0.865505 0.034677 0.499699
vn 0.866025 -0.000904 0.500000
vn 0.866025 0.001317 0.499999
vn 0.865505 0.034677 -0.499699
vn 0.865505 0.034677 -0.499699
vn 0.866025 0.001317 -0.499999
vn 0.866025 -0.000904 -0.500000
vn 0.000000 -1.000000 -0.000001
vn 0.000000 -1.000000 -0.000001
vn 0.000000 -1.000000 -0.000000
vn 0.000000 -1.000000 0.000000
vn 0.000000 -1.000000 0.000000
vn 0.000000 -1.000000 0.000000
vn 0.000000 -1.000000 0.000000
vn 0.000000 1.000000 0.000001
vn 0.000000 1.000000 -0.000000
vn 0.000000 1.000000 0.000000
vn 0.000000 1.000000 -0.000001
vn 0.000000 1.000000 0.000000
vn 0.000000 1.000000 0.000000
vn 0.000000 1.000000 0.000000
vn 0.862720 -0.087290 -0.498091
vn 0.861466 -0.102478 -0.497367
vn 0.861466 -0.102478 0.497368
vn 0.862720 -0.087290 0.498091
vn -0.000000 -0.082718 0.996573
vn -0.000000 -0.037076 0.999312
vn -0.865821 -0.021730 0.499882
vn -0.866025 0.000551 0.500000
vn -0.866025 0.000551 -0.500000
vn -0.865821 -0.021730 -0.499882
vn 0.000000 -0.037076 -0.999312
vn 0.000000 -0.082718 -0.996573
vn 0.000001 -0.097280 -0.995257
vn 0.000001 -0.097280 -0.995257
vn -0.861918 -0.097281 -0.497629
vn -0.861918 -0.097280 -0.497629
vn -0.861918 -0.097280 0.497628
vn -0.861918 -0.097279 0.497628
vn -0.000000 -0.097280 0.995257
vn -0.000000 -0.097279 0.995257
vn 0.861918 -0.097281 0.497629
vn 0.861918 -0.097281 0.497629
vn 0.861918 -0.097280 -0.497628
vn 0.861918 -0.097279 -0.497628
vn 0.000002 0.114996 -0.993366
vn 0.000002 0.114996 -0.993366
vn -0.860280 0.114995 -0.496683
vn -0.860280 0.114995 -0.496683
vn -0.860280 0.114996 0.496683
vn -0.860280 0.114996 0.496683
vn -0.000001 0.114997 0.993366
vn -0.000001 0.114997 0.993366
vn 0.860280 0.114995 0.496684
vn 0.860280 0.114995 0.496684
vn 0.860280 0.114996 -0.496683
vn 0.860280 0.114996 -0.496683
s 1
g pCylinder1
usemtl initialShadingGroup
f 1/7/1 2/8/2 19/35/3 14/30/4
s 2
f 2/8/5 3/9/6 18/34/7 19/35/8
s 3
f 3/9/9 4/10/10 17/33/11 18/34/12
s 4
f 4/10/13 5/11/14 16/32/15 17/33/16
s 5
f 5/11/17 6/12/18 15/31/19 16/32/20
s 6
f 6/12/21 1/13/22 14/29/23 15/31/24
s 7
f 2/2/25 1/1/26 13/27/27
f 3/3/28 2/2/25 13/27/27
f 4/4/29 3/3/28 13/27/27
f 5/5/30 4/4/29 13/27/27
f 6/6/31 5/5/30 13/27/27
f 1/1/26 6/6/31 13/27/27
s 8
f 26/42/32 27/55/33 28/28/34
f 27/55/33 29/53/35 28/28/34
f 29/53/35 30/52/36 28/28/34
f 30/52/36 31/50/37 28/28/34
f 31/50/37 32/48/38 28/28/34
f 32/48/38 26/42/32 28/28/34
s 6
f 15/31/24 14/29/23 7/20/39 12/19/40
s 5
f 16/32/20 15/31/19 12/19/41 11/18/42
s 4
f 17/33/16 16/32/15 11/18/43 10/17/44
s 3
f 18/34/12 17/33/11 10/17/45 9/16/46
s 2
f 19/35/8 18/34/7 9/16/47 8/15/48
s 1
f 14/30/4 19/35/3 8/15/49 7/14/50
f 7/25/50 8/24/49 21/37/51 20/36/52
s 2
f 8/24/48 9/23/47 22/38/53 21/37/54
s 3
f 9/23/46 10/56/45 23/54/55 22/38/56
s 4
f 10/22/44 11/21/43 24/40/57 23/39/58
s 5
f 11/21/42 12/26/41 25/41/59 24/40/60
s 6
f 12/26/40 7/25/39 20/36/61 25/41/62
s 1
f 20/36/52 21/37/51 27/43/63 26/49/64
s 2
f 21/37/54 22/38/53 29/44/65 27/43/66
s 3
f 22/38/56 23/54/55 30/51/67 29/44/68
s 4
f 23/39/58 24/40/57 31/46/69 30/45/70
s 5
f 24/40/60 25/41/59 32/47/71 31/46/72
s 6
f 25/41/62 20/36/61 26/49/73 32/47/74
g default
v -0.064638 4.055964 0.045045
v 0.047965 4.055964 0.045045
v -0.085069 4.168565 0.065476
v 0.068395 4.168565 0.065476
v -0.085069 4.168565 -0.087989
v 0.068395 4.168565 -0.087989
v -0.064638 4.055964 -0.067558
v 0.047965 4.055964 -0.067558
v -0.037973 4.330625 -0.012940
v 0.027552 4.330625 -0.012940
v 0.027552 4.330625 -0.048896
v -0.037973 4.330625 -0.048896
v -0.007226 4.414500 -0.029812
v -0.003195 4.414500 -0.029812
v -0.003195 4.414500 -0.032024
v -0.007226 4.414500 -0.032024
vt 0.528166 0.031726
vt 0.556154 0.020355
vt 0.335763 0.000007
vt 0.376144 0.008046
vt 0.299519 0.019541
vt 0.403059 0.039203
vt 0.679909 0.040732
vt 0.708443 0.030810
vt 0.689831 0.069266
vt 0.718365 0.059345
vt 0.578479 0.000002
vt 0.603215 0.018997
vt 0.497972 0.032710
vt 0.493494 0.063575
vt 0.724656 0.001260
vt 0.759180 0.017271
vt 0.745500 0.046392
vt 0.710975 0.030381
vt 0.734517 0.023569
vt 0.735596 0.023492
vt 0.735638 0.024084
vt 0.734560 0.024161
vt 0.330233 0.054422
vt 0.727965 0.047643
vt 0.362272 0.060578
vt 0.759867 0.026894
vt 0.355966 0.053278
vt 0.742191 0.000010
vt 0.338725 0.049846
vt 0.710289 0.020759
vt 0.572789 0.046737
vt 0.703537 0.000010
vt 0.534645 0.062234
vt 0.664648 0.013533
vt 0.412943 0.079172
vt 0.366492 0.077643
vn 0.000000 -0.178528 0.983935
vn 0.000000 -0.178528 0.983935
vn 0.000000 -0.178528 0.983935
vn 0.000000 -0.178528 0.983935
vn 0.000000 1.000000 0.000000
vn 0.000000 1.000000 0.000000
vn 0.000000 1.000000 0.000000
vn 0.000000 1.000000 0.000000
vn 0.000000 -0.178528 -0.983935
vn 0.000000 -0.178528 -0.983935
vn 0.000000 -0.178528 -0.983935
vn 0.000000 -0.178528 -0.983935
vn 0.000000 -1.000000 0.000000
vn 0.000000 -1.000000 0.000000
vn 0.000000 -1.000000 0.000000
vn 0.000000 -1.000000 0.000000
vn 0.983935 -0.178528 0.000000
vn 0.983935 -0.178528 0.000000
vn 0.983935 -0.178528 0.000000
vn 0.983935 -0.178528 0.000000
vn -0.983935 -0.178528 0.000000
vn -0.983935 -0.178528 0.000000
vn -0.983935 -0.178528 0.000000
vn -0.983935 -0.178528 0.000000
vn 0.000000 0.435560 0.900160
vn 0.000000 0.435560 0.900160
vn 0.000000 0.414387 0.910101
vn 0.000000 0.414735 0.909942
vn 0.969678 0.244388 0.000000
vn 0.969677 0.244388 0.000000
vn 0.967697 0.252116 0.000000
vn 0.967891 0.251368 0.000000
vn 0.000000 0.234497 -0.972117
vn 0.000000 0.234498 -0.972117
vn 0.000000 0.230870 -0.972985
vn 0.000000 0.230807 -0.973000
vn -0.960272 0.279065 0.000000
vn -0.960272 0.279065 0.000000
vn -0.958951 0.283571 0.000000
vn -0.958809 0.284051 0.000000
vn 0.000000 0.197206 0.980362
vn 0.000000 0.197206 0.980362
vn 0.938904 0.344180 0.000000
vn 0.938904 0.344180 0.000000
vn 0.000000 0.197206 -0.980362
vn 0.000000 0.197206 -0.980362
vn -0.938904 0.344180 0.000000
vn -0.938904 0.344180 0.000000
s off
g pCube1
usemtl initialShadingGroup
f 33/57/75 34/58/76 36/87/77 35/89/78
f 45/75/79 46/76/80 47/77/81 48/78/82
f 37/90/83 38/88/84 40/64/85 39/63/86
f 39/63/87 40/64/88 34/66/89 33/65/90
f 34/58/91 40/67/92 38/68/93 36/87/94
f 39/69/95 33/57/96 35/89/97 37/70/98
s 1
f 35/59/99 36/60/100 42/83/101 41/85/102
s 2
f 36/60/103 38/62/104 43/81/105 42/83/106
s 3
f 38/62/107 37/91/108 44/92/109 43/81/110
s 4
f 37/61/111 35/59/112 41/85/113 44/79/114
s 1
f 41/71/102 42/84/101 46/76/115 45/75/116
s 2
f 42/72/106 43/82/105 47/77/117 46/76/118
s 3
f 43/73/110 44/80/109 48/78/119 47/77/120
s 4
f 44/74/114 41/86/113 45/75/121 48/78/122
