# This file uses centimeters as units for non-parametric coordinates.

g default
v 2.082000 -0.129000 -1.513000
v 0.794998 -0.129000 -2.448061
v -0.795827 -0.129000 -2.448061
v -2.082830 -0.129000 -1.513000
v -2.574421 -0.129000 -0.000037
v -2.082830 -0.129000 1.512926
v -0.795827 -0.129000 2.447989
v 0.794998 -0.129000 2.447988
v 2.082000 -0.129000 1.512926
v 2.573590 -0.129000 -0.000037
v 2.082000 0.129030 -1.513000
v 0.794998 0.129030 -2.448061
v -0.795827 0.129030 -2.448061
v -2.082830 0.129030 -1.513000
v -2.574421 0.129030 -0.000037
v -2.082830 0.129030 1.512926
v -0.795827 0.129030 2.447989
v 0.794998 0.129030 2.447988
v 2.082000 0.129030 1.512926
v 2.573590 0.129030 -0.000037
v -0.000415 -0.129000 -0.000037
v 1.421562 0.853962 -1.033164
v 0.542731 0.853962 -1.671667
v -0.000415 0.853962 -0.000037
v -0.543559 0.853962 -1.671667
v -1.422390 0.853962 -1.033164
v -1.758070 0.853962 -0.000037
v -1.422390 0.853962 1.033088
v -0.543559 0.853962 1.671594
v 0.542731 0.853962 1.671594
v 1.421562 0.853962 1.033088
v 1.757242 0.853962 -0.000037
vt 0.074162 0.437159
vt 0.164810 0.371517
vt 0.175458 0.386219
vt 0.084809 0.451860
vt 0.187307 0.364234
vt 0.299226 0.364411
vt 0.299199 0.382564
vt 0.187279 0.382387
vt 0.321704 0.371740
vt 0.412146 0.437664
vt 0.401454 0.452334
vt 0.311012 0.386410
vt 0.426027 0.456811
vt 0.460448 0.563306
vt 0.443174 0.568890
vt 0.408755 0.462395
vt 0.460421 0.586953
vt 0.425671 0.693341
vt 0.408415 0.687705
vt 0.443166 0.581318
vt 0.411749 0.712463
vt 0.321093 0.778095
vt 0.310448 0.763392
vt 0.401102 0.697758
vt 0.298662 0.785340
vt 0.186742 0.785255
vt 0.186756 0.767095
vt 0.298676 0.767193
vt 0.164195 0.777884
vt 0.073761 0.711948
vt 0.084454 0.697280
vt 0.174890 0.763214
vt 0.059886 0.692809
vt 0.025466 0.586313
vt 0.042740 0.580730
vt 0.077159 0.687225
vt 0.025489 0.562663
vt 0.060242 0.456276
vt 0.077498 0.461911
vt 0.042746 0.568299
vt 0.854288 0.361252
vt 0.944832 0.427037
vt 0.798327 0.533478
vt 0.742368 0.361252
vt 0.651823 0.427036
vt 0.617238 0.533476
vt 0.651822 0.639918
vt 0.742367 0.705704
vt 0.854287 0.705704
vt 0.944831 0.639919
vt 0.979416 0.533478
vt 0.143020 0.501983
vt 0.204912 0.457151
vt 0.242956 0.574809
vt 0.281334 0.457260
vt 0.343099 0.502267
vt 0.366613 0.574985
vt 0.342892 0.647634
vt 0.281001 0.692459
vt 0.204577 0.692369
vt 0.142814 0.647352
vt 0.119300 0.574633
vn 0.196640 -0.970012 -0.142864
vn 0.075110 -0.970020 -0.231129
vn 0.242656 0.619275 -0.746737
vn 0.635207 0.619274 -0.461532
vn 0.075110 -0.970020 -0.231129
vn -0.075110 -0.970020 -0.231129
vn -0.242656 0.619275 -0.746737
vn 0.242656 0.619275 -0.746737
vn -0.075110 -0.970020 -0.231129
vn -0.196640 -0.970012 -0.142864
vn -0.635207 0.619274 -0.461532
vn -0.242656 0.619275 -0.746737
vn -0.196640 -0.970012 -0.142864
vn -0.243088 -0.970004 0.000000
vn -0.785194 0.619249 0.000000
vn -0.635207 0.619274 -0.461532
vn -0.243088 -0.970004 0.000000
vn -0.196640 -0.970012 0.142864
vn -0.635207 0.619274 0.461532
vn -0.785194 0.619249 0.000000
vn -0.196640 -0.970012 0.142864
vn -0.075110 -0.970020 0.231129
vn -0.242656 0.619275 0.746737
vn -0.635207 0.619274 0.461532
vn -0.075110 -0.970020 0.231129
vn 0.075110 -0.970020 0.231129
vn 0.242656 0.619275 0.746737
vn -0.242656 0.619275 0.746737
vn 0.075110 -0.970020 0.231129
vn 0.196640 -0.970012 0.142864
vn 0.635207 0.619274 0.461532
vn 0.242656 0.619275 0.746737
vn 0.196640 -0.970012 0.142864
vn 0.243088 -0.970004 0.000000
vn 0.785194 0.619249 0.000000
vn 0.635207 0.619274 0.461532
vn 0.243088 -0.970004 0.000000
vn 0.196640 -0.970012 -0.142864
vn 0.635207 0.619274 -0.461532
vn 0.785194 0.619249 0.000000
vn 0.075110 -0.970020 -0.231129
vn 0.196640 -0.970012 -0.142864
vn 0.000000 -1.000000 0.000000
vn -0.075110 -0.970020 -0.231129
vn 0.075110 -0.970020 -0.231129
vn 0.000000 -1.000000 0.000000
vn -0.196640 -0.970012 -0.142864
vn -0.075110 -0.970020 -0.231129
vn 0.000000 -1.000000 0.000000
vn -0.243088 -0.970004 0.000000
vn -0.196640 -0.970012 -0.142864
vn 0.000000 -1.000000 0.000000
vn -0.196640 -0.970012 0.142864
vn -0.243088 -0.970004 0.000000
vn 0.000000 -1.000000 0.000000
vn -0.075110 -0.970020 0.231129
vn -0.196640 -0.970012 0.142864
vn 0.000000 -1.000000 0.000000
vn 0.075110 -0.970020 0.231129
vn -0.075110 -0.970020 0.231129
vn 0.000000 -1.000000 0.000000
vn 0.196640 -0.970012 0.142864
vn 0.075110 -0.970020 0.231129
vn 0.000000 -1.000000 0.000000
vn 0.243088 -0.970004 0.000000
vn 0.196640 -0.970012 0.142864
vn 0.000000 -1.000000 0.000000
vn 0.196640 -0.970012 -0.142864
vn 0.243088 -0.970004 0.000000
vn 0.000000 -1.000000 0.000000
vn 0.376062 0.885384 -0.273264
vn 0.143575 0.885380 -0.442141
vn 0.000000 1.000000 0.000000
vn 0.143575 0.885380 -0.442141
vn -0.143575 0.885380 -0.442141
vn 0.000000 1.000000 0.000000
vn -0.143575 0.885380 -0.442141
vn -0.376062 0.885384 -0.273264
vn 0.000000 1.000000 0.000000
vn -0.376062 0.885384 -0.273264
vn -0.464877 0.885375 0.000000
vn 0.000000 1.000000 0.000000
vn -0.464877 0.885375 0.000000
vn -0.376062 0.885384 0.273264
vn 0.000000 1.000000 0.000000
vn -0.376062 0.885384 0.273264
vn -0.143575 0.885380 0.442141
vn 0.000000 1.000000 0.000000
vn -0.143575 0.885380 0.442141
vn 0.143575 0.885380 0.442141
vn 0.000000 1.000000 0.000000
vn 0.143575 0.885380 0.442141
vn 0.376062 0.885384 0.273264
vn 0.000000 1.000000 0.000000
vn 0.376062 0.885384 0.273264
vn 0.464877 0.885375 0.000000
vn 0.000000 1.000000 0.000000
vn 0.464877 0.885375 0.000000
vn 0.376062 0.885384 -0.273264
vn 0.000000 1.000000 0.000000
vn 0.635207 0.619274 -0.461532
vn 0.242656 0.619275 -0.746737
vn 0.143575 0.885380 -0.442141
vn 0.376062 0.885384 -0.273264
vn 0.242656 0.619275 -0.746737
vn -0.242656 0.619275 -0.746737
vn -0.143575 0.885380 -0.442141
vn 0.143575 0.885380 -0.442141
vn -0.242656 0.619275 -0.746737
vn -0.635207 0.619274 -0.461532
vn -0.376062 0.885384 -0.273264
vn -0.143575 0.885380 -0.442141
vn -0.635207 0.619274 -0.461532
vn -0.785194 0.619249 0.000000
vn -0.464877 0.885375 0.000000
vn -0.376062 0.885384 -0.273264
vn -0.785194 0.619249 0.000000
vn -0.635207 0.619274 0.461532
vn -0.376062 0.885384 0.273264
vn -0.464877 0.885375 0.000000
vn -0.635207 0.619274 0.461532
vn -0.242656 0.619275 0.746737
vn -0.143575 0.885380 0.442141
vn -0.376062 0.885384 0.273264
vn -0.242656 0.619275 0.746737
vn 0.242656 0.619275 0.746737
vn 0.143575 0.885380 0.442141
vn -0.143575 0.885380 0.442141
vn 0.242656 0.619275 0.746737
vn 0.635207 0.619274 0.461532
vn 0.376062 0.885384 0.273264
vn 0.143575 0.885380 0.442141
vn 0.635207 0.619274 0.461532
vn 0.785194 0.619249 0.000000
vn 0.464877 0.885375 0.000000
vn 0.376062 0.885384 0.273264
vn 0.785194 0.619249 0.000000
vn 0.635207 0.619274 -0.461532
vn 0.376062 0.885384 -0.273264
vn 0.464877 0.885375 0.000000
s off
g CrossStand:CrossStandpCylinder1 StandCross
f 1/1/1 2/2/2 12/3/3 11/4/4
f 2/5/5 3/6/6 13/7/7 12/8/8
f 3/9/9 4/10/10 14/11/11 13/12/12
f 4/13/13 5/14/14 15/15/15 14/16/16
f 5/17/17 6/18/18 16/19/19 15/20/20
f 6/21/21 7/22/22 17/23/23 16/24/24
f 7/25/25 8/26/26 18/27/27 17/28/28
f 8/29/29 9/30/30 19/31/31 18/32/32
f 9/33/33 10/34/34 20/35/35 19/36/36
f 10/37/37 1/38/38 11/39/39 20/40/40
f 2/41/41 1/42/42 21/43/43
f 3/44/44 2/41/45 21/43/46
f 4/45/47 3/44/48 21/43/49
f 5/46/50 4/45/51 21/43/52
f 6/47/53 5/46/54 21/43/55
f 7/48/56 6/47/57 21/43/58
f 8/49/59 7/48/60 21/43/61
f 9/50/62 8/49/63 21/43/64
f 10/51/65 9/50/66 21/43/67
f 1/42/68 10/51/69 21/43/70
f 22/52/71 23/53/72 24/54/73
f 23/53/74 25/55/75 24/54/76
f 25/55/77 26/56/78 24/54/79
f 26/56/80 27/57/81 24/54/82
f 27/57/83 28/58/84 24/54/85
f 28/58/86 29/59/87 24/54/88
f 29/59/89 30/60/90 24/54/91
f 30/60/92 31/61/93 24/54/94
f 31/61/95 32/62/96 24/54/97
f 32/62/98 22/52/99 24/54/100
f 11/4/101 12/3/102 23/53/103 22/52/104
f 12/8/105 13/7/106 25/55/107 23/53/108
f 13/12/109 14/11/110 26/56/111 25/55/112
f 14/16/113 15/15/114 27/57/115 26/56/116
f 15/20/117 16/19/118 28/58/119 27/57/120
f 16/24/121 17/23/122 29/59/123 28/58/124
f 17/28/125 18/27/126 30/60/127 29/59/128
f 18/32/129 19/31/130 31/61/131 30/60/132
f 19/36/133 20/35/134 32/62/135 31/61/136
f 20/40/137 11/39/138 22/52/139 32/62/140
g default
v -0.483162 0.774607 0.394143
v 0.482332 0.774607 0.394143
v 0.482332 8.570503 0.394143
v -0.483162 8.570503 0.394143
v -0.483162 9.496396 0.394143
v 0.482332 9.496396 0.394143
v 0.353586 10.649229 0.289018
v -0.354413 10.649229 0.289018
v -0.461739 13.152490 0.376652
v 0.460909 13.152490 0.376652
v 0.460909 13.152490 -0.376727
v -0.461739 13.152490 -0.376727
v -0.354413 10.649229 -0.289092
v 0.353586 10.649229 -0.289092
v 0.482332 9.496396 -0.394218
v -0.483162 9.496396 -0.394218
v -0.483162 8.570503 -0.394218
v 0.482332 8.570503 -0.394218
v 0.482332 0.774607 -0.394218
v -0.483162 0.774607 -0.394218
v -3.306998 9.402477 -0.314250
v -3.306998 8.664422 -0.314250
v -3.370418 8.664422 0.314174
v -3.370418 9.402477 0.314174
v 3.449200 8.648737 0.327528
v 3.437523 8.648737 -0.327602
v 3.437523 9.418160 -0.327602
v 3.449200 9.418160 0.327528
v -1.424975 8.677720 -0.302927
v -1.424975 9.389179 -0.302927
v -1.424975 8.677720 0.302851
v -1.424975 9.389179 0.302851
v 1.464211 8.696360 -0.287054
v 1.464211 8.696360 0.286980
v 1.464211 9.370535 -0.287054
v 1.464211 9.370535 0.286980
v -2.282759 8.570503 -0.394218
v -2.282759 8.570503 0.394143
v -3.165028 8.710802 0.274684
v -3.124201 8.710802 -0.274758
v -2.282759 9.496396 -0.394218
v -3.124201 9.356096 -0.274758
v -2.282759 9.496396 0.394143
v -3.165028 9.356096 0.274684
v 2.321449 9.496396 0.394143
v 2.321449 8.570503 0.394143
v 3.253662 8.736390 0.252896
v 3.253662 9.330507 0.252896
v 2.321449 9.496396 -0.394218
v 3.246648 9.330507 -0.252972
v 2.321449 8.570503 -0.394218
v 3.246648 8.736390 -0.252972
v -0.483162 11.927116 0.394143
v 0.482332 11.927116 0.394143
v 0.348833 12.941796 0.285137
v -0.349663 12.941796 0.285137
v -0.349663 12.941796 -0.285211
v -0.483162 11.927116 -0.394218
v 0.348833 12.941796 -0.285211
v 0.482332 11.927116 -0.394218
vt 0.954477 0.853218
vt 0.954480 0.921143
vt 0.406013 0.921170
vt 0.406010 0.853245
vt 0.910198 0.275083
vt 0.864118 0.319848
vt 0.811450 0.255899
vt 0.850830 0.217365
vt 0.635549 0.085790
vt 0.682446 0.130806
vt 0.647538 0.168234
vt 0.599357 0.124601
vt 0.882873 0.183820
vt 0.918084 0.145280
vt 0.986280 0.185677
vt 0.945740 0.237898
vt 0.406007 0.797782
vt 0.406004 0.729857
vt 0.954471 0.729829
vt 0.954474 0.797755
vt 0.821361 0.352722
vt 0.780388 0.284982
vt 0.954482 0.976607
vt 0.406016 0.976634
vt 0.601149 0.175445
vt 0.552781 0.194816
vt 0.536174 0.154293
vt 0.584260 0.134188
vt 0.308201 0.138293
vt 0.246694 0.161539
vt 0.221753 0.102455
vt 0.287655 0.077416
vt 0.075703 0.322514
vt 0.088085 0.365494
vt 0.036110 0.381285
vt 0.023291 0.336849
vt 0.350038 0.245283
vt 0.283855 0.269402
vt 0.263869 0.209287
vt 0.326373 0.186251
vt 0.353864 0.065815
vt 0.371305 0.116008
vt 0.377633 0.292193
vt 0.410883 0.213491
vt 0.430703 0.253973
vt 0.388641 0.162007
vt 0.292059 0.323000
vt 0.224120 0.325953
vt 0.213573 0.284193
vt 0.181527 0.187374
vt 0.162896 0.140068
vt 0.197756 0.232309
vt 0.491416 0.238348
vt 0.467882 0.191739
vt 0.522707 0.161117
vt 0.540149 0.198213
vt 0.427338 0.093421
vt 0.408646 0.034589
vt 0.471661 0.029741
vt 0.484372 0.075753
vt 0.444257 0.138581
vt 0.502325 0.115395
vt 0.139931 0.250579
vt 0.156218 0.305499
vt 0.090702 0.318342
vt 0.077094 0.271933
vt 0.123890 0.206066
vt 0.063256 0.232053
vt 0.100385 0.149505
vt 0.044995 0.190961
vt 0.168739 0.355698
vt 0.099673 0.355938
vt 0.786495 0.153140
vt 0.742834 0.196705
vt 0.695158 0.142719
vt 0.735007 0.103333
vt 0.767768 0.069561
vt 0.820514 0.118137
vt 0.803583 0.031281
vt 0.865431 0.071563
vt 0.705632 0.233827
vt 0.664172 0.172981
vt 0.483157 0.023366
vt 0.497249 0.072030
vt 0.515781 0.109523
vt 0.062923 0.275991
vt 0.049450 0.237974
vt 0.030109 0.190331
vt 0.723921 0.091237
vt 0.755111 0.058027
vt 0.798742 0.014836
vn 0.000000 0.000000 1.000000
vn 0.000000 0.000000 1.000000
vn 0.000000 0.000000 1.000000
vn 0.000000 0.000000 1.000000
vn -0.028292 0.031832 0.999093
vn 0.032079 0.031713 0.998982
vn 0.000000 0.000275 1.000000
vn 0.000000 0.000275 1.000000
vn 0.000000 1.000000 0.000000
vn 0.000000 1.000000 0.000000
vn 0.000000 1.000000 0.000000
vn 0.000000 1.000000 0.000000
vn 0.000000 0.000275 -1.000000
vn 0.000000 0.000275 -1.000000
vn 0.032079 0.031713 -0.998982
vn -0.028292 0.031832 -0.999093
vn -0.007660 0.000000 -0.999971
vn 0.008729 0.000000 -0.999962
vn 0.000000 0.000000 -1.000000
vn 0.000000 0.000000 -1.000000
vn 0.993824 0.110971 0.000000
vn 1.000000 0.000427 0.000000
vn 1.000000 0.000427 0.000000
vn 0.993824 0.110971 0.000000
vn 1.000000 0.000000 0.000000
vn 1.000000 0.000000 0.000000
vn 1.000000 0.000000 0.000000
vn 1.000000 0.000000 0.000000
vn -1.000000 0.000427 0.000000
vn -0.993824 0.110971 0.000000
vn -0.993824 0.110971 0.000000
vn -1.000000 0.000427 0.000000
vn -1.000000 0.000000 0.000000
vn -1.000000 0.000000 0.000000
vn -1.000000 0.000000 0.000000
vn -1.000000 0.000000 0.000000
vn -0.994955 0.000000 -0.100325
vn -0.994955 0.000000 -0.100325
vn -0.994955 0.000000 -0.100325
vn -0.994955 0.000000 -0.100325
vn -0.028292 0.031832 -0.999093
vn 0.032079 0.031713 -0.998982
vn 0.008729 0.000000 -0.999962
vn -0.007660 0.000000 -0.999971
vn 0.999842 0.000000 -0.017793
vn 0.999842 0.000000 -0.017793
vn 0.999842 0.000000 -0.017793
vn 0.999842 0.000000 -0.017793
vn -0.007660 0.000000 0.999971
vn 0.008729 0.000000 0.999962
vn 0.032079 0.031713 0.998982
vn -0.028292 0.031832 0.999093
vn -0.028292 0.031832 -0.999093
vn -0.007660 0.000000 -0.999971
vn 0.000153 0.000000 -1.000000
vn 0.000153 0.000000 -1.000000
vn -0.113047 -0.993590 0.000000
vn -0.113047 -0.993590 0.000000
vn 0.000397 -1.000000 0.000000
vn 0.000397 -1.000000 0.000000
vn -0.007660 0.000000 0.999971
vn -0.028292 0.031832 0.999093
vn 0.000153 0.000000 1.000000
vn 0.000153 0.000000 1.000000
vn -0.113047 0.993590 0.000000
vn -0.113047 0.993590 0.000000
vn 0.000397 1.000000 0.000000
vn 0.000397 1.000000 0.000000
vn 0.127054 -0.991896 0.000000
vn 0.127054 -0.991896 0.000000
vn -0.000794 -1.000000 0.000000
vn -0.000794 -1.000000 0.000000
vn 0.008729 0.000000 -0.999962
vn 0.032079 0.031713 -0.998982
vn -0.000366 0.000000 -1.000000
vn -0.000366 0.000000 -1.000000
vn 0.127054 0.991896 0.000000
vn 0.127054 0.991896 0.000000
vn -0.000794 1.000000 0.000000
vn -0.000794 1.000000 0.000000
vn 0.032079 0.031713 0.998982
vn 0.008729 0.000000 0.999962
vn -0.000366 0.000000 1.000000
vn -0.000366 0.000000 1.000000
vn -0.013673 -0.999904 -0.002319
vn -0.014131 -0.999898 -0.002319
vn -0.090278 -0.995917 -0.000214
vn -0.095926 -0.995388 -0.000580
vn -0.012696 0.000000 -0.999919
vn -0.012696 0.000000 -0.999919
vn -0.082531 0.000000 -0.996589
vn -0.082531 0.000000 -0.996589
vn -0.014131 0.999898 -0.002319
vn -0.013673 0.999904 -0.002319
vn -0.095926 0.995388 -0.000580
vn -0.090278 0.995917 -0.000214
vn -0.012635 0.000000 0.999920
vn -0.012635 0.000000 0.999920
vn -0.078137 0.000000 0.996943
vn -0.078137 0.000000 0.996943
vn 0.014405 0.000000 0.999896
vn 0.014405 0.000000 0.999896
vn 0.060525 0.000000 0.998167
vn 0.060525 0.000000 0.998167
vn 0.015962 0.999873 -0.000397
vn 0.016084 0.999871 -0.000397
vn 0.065708 0.997839 0.000427
vn 0.067175 0.997741 0.000397
vn 0.014405 0.000000 -0.999896
vn 0.014405 0.000000 -0.999896
vn 0.061012 0.000000 -0.998137
vn 0.061012 0.000000 -0.998137
vn 0.016084 -0.999871 -0.000397
vn 0.015962 -0.999873 -0.000397
vn 0.067175 -0.997741 0.000397
vn 0.065708 -0.997839 0.000427
vn 0.000000 0.000061 1.000000
vn 0.000000 0.000061 1.000000
vn 0.000000 0.002350 0.999997
vn 0.000000 0.002350 0.999997
vn -1.000000 -0.000183 0.000000
vn -1.000000 -0.000061 0.000000
vn -1.000000 -0.000061 0.000000
vn -1.000000 -0.000183 0.000000
vn 0.000000 0.002350 -0.999997
vn 0.000000 0.002350 -0.999997
vn 0.000000 0.000061 -1.000000
vn 0.000000 0.000061 -1.000000
vn 1.000000 -0.000061 0.000000
vn 1.000000 -0.000061 0.000000
vn 1.000000 -0.000183 0.000000
vn 1.000000 -0.000183 0.000000
vn -0.095926 -0.995388 -0.000580
vn -0.090278 -0.995917 -0.000214
vn 0.232353 -0.972415 0.020541
vn 0.232353 -0.972415 0.020541
vn -0.082531 0.000000 -0.996589
vn -0.082531 0.000000 -0.996589
vn 0.211119 0.000000 -0.977460
vn 0.211119 0.000000 -0.977460
vn -0.090278 0.995917 -0.000214
vn -0.095926 0.995388 -0.000580
vn 0.232353 0.972415 0.020541
vn 0.232353 0.972415 0.020541
vn -0.078137 0.000000 0.996943
vn -0.078137 0.000000 0.996943
vn 0.188797 0.000000 0.982016
vn 0.188797 0.000000 0.982016
vn 0.060525 0.000000 0.998167
vn 0.060525 0.000000 0.998167
vn -0.356530 0.000000 0.934284
vn -0.356530 0.000000 0.934284
vn 0.067175 0.997741 0.000397
vn 0.065708 0.997839 0.000427
vn -0.413116 0.910655 0.006563
vn -0.413116 0.910655 0.006563
vn 0.061012 0.000000 -0.998137
vn 0.061012 0.000000 -0.998137
vn -0.364133 0.000000 -0.931347
vn -0.364133 0.000000 -0.931347
vn 0.065708 -0.997839 0.000427
vn 0.067175 -0.997741 0.000397
vn -0.413116 -0.910655 0.006563
vn -0.413116 -0.910655 0.006563
vn 0.000000 0.002350 0.999997
vn 0.000000 0.002350 0.999997
vn 0.000000 -0.398379 0.917221
vn 0.000000 -0.398379 0.917221
vn -0.882869 -0.469620 0.000000
vn -1.000000 -0.000183 0.000000
vn -1.000000 -0.000183 0.000000
vn -0.882869 -0.469620 0.000000
vn 0.000000 -0.398379 -0.917221
vn 0.000000 -0.398379 -0.917221
vn 0.000000 0.002350 -0.999997
vn 0.000000 0.002350 -0.999997
vn 1.000000 -0.000183 0.000000
vn 1.000000 -0.000183 0.000000
vn 0.882869 -0.469620 0.000000
vn 0.882869 -0.469620 0.000000
vn 0.000153 0.000000 1.000000
vn 0.000153 0.000000 1.000000
vn -0.012635 0.000000 0.999920
vn -0.012635 0.000000 0.999920
vn 0.000397 -1.000000 0.000000
vn 0.000397 -1.000000 0.000000
vn -0.014131 -0.999898 -0.002319
vn -0.013673 -0.999904 -0.002319
vn 0.000153 0.000000 -1.000000
vn 0.000153 0.000000 -1.000000
vn -0.012696 0.000000 -0.999919
vn -0.012696 0.000000 -0.999919
vn 0.000397 1.000000 0.000000
vn 0.000397 1.000000 0.000000
vn -0.013673 0.999904 -0.002319
vn -0.014131 0.999898 -0.002319
vn -0.000794 1.000000 0.000000
vn -0.000794 1.000000 0.000000
vn 0.016084 0.999871 -0.000397
vn 0.015962 0.999873 -0.000397
vn -0.000366 0.000000 -1.000000
vn -0.000366 0.000000 -1.000000
vn 0.014405 0.000000 -0.999896
vn 0.014405 0.000000 -0.999896
vn -0.000794 -1.000000 0.000000
vn -0.000794 -1.000000 0.000000
vn 0.015962 -0.999873 -0.000397
vn 0.016084 -0.999871 -0.000397
vn -0.000366 0.000000 1.000000
vn -0.000366 0.000000 1.000000
vn 0.014405 0.000000 0.999896
vn 0.014405 0.000000 0.999896
vn -1.000000 -0.000061 0.000000
vn -1.000000 0.000427 0.000000
vn -1.000000 0.000427 0.000000
vn -1.000000 -0.000061 0.000000
vn 0.000000 0.000061 -1.000000
vn 0.000000 0.000061 -1.000000
vn 0.000000 0.000275 -1.000000
vn 0.000000 0.000275 -1.000000
vn 1.000000 0.000427 0.000000
vn 1.000000 0.000427 0.000000
vn 1.000000 -0.000061 0.000000
vn 1.000000 -0.000061 0.000000
vn 0.000000 0.000275 1.000000
vn 0.000000 0.000275 1.000000
vn 0.000000 0.000061 1.000000
vn 0.000000 0.000061 1.000000
s off
g StandCross CrossStand:Cross2CrossStand
f 33/63/141 34/64/142 35/65/143 36/66/144
f 37/67/145 38/68/146 39/69/147 40/70/148
f 41/71/149 42/72/150 43/73/151 44/74/152
f 45/75/153 46/76/154 47/77/155 48/78/156
f 49/79/157 50/80/158 51/81/159 52/82/160
f 47/83/161 46/84/162 39/69/163 38/68/164
f 51/85/165 50/86/166 35/65/167 34/64/168
f 45/75/169 48/78/170 37/67/171 40/70/172
f 49/79/173 52/82/174 33/63/175 36/66/176
f 53/87/177 54/88/178 55/89/179 56/90/180
f 48/91/181 47/92/182 50/93/183 49/94/184
f 57/95/185 58/96/186 59/97/187 60/98/188
f 36/99/189 35/100/190 38/101/191 37/102/192
f 48/91/193 49/94/194 61/103/195 62/104/196
f 49/105/197 36/99/198 63/106/199 61/107/200
f 36/99/201 37/102/202 64/108/203 63/106/204
f 37/102/205 48/91/206 62/104/207 64/108/208
f 35/100/209 50/109/210 65/110/211 66/111/212
f 50/93/213 47/92/214 67/112/215 65/113/216
f 47/92/217 38/101/218 68/114/219 67/112/220
f 38/101/221 35/100/222 66/111/223 68/114/224
f 69/115/225 70/116/226 71/117/227 72/118/228
f 73/119/229 69/120/230 72/121/231 74/122/232
f 75/123/233 73/119/234 74/122/235 76/124/236
f 70/116/237 75/123/238 76/124/239 71/117/240
f 77/125/241 78/126/242 79/127/243 80/128/244
f 81/129/245 77/125/246 80/128/247 82/130/248
f 83/131/249 81/129/250 82/130/251 84/132/252
f 78/126/253 83/133/254 84/134/255 79/127/256
f 85/135/257 86/136/258 87/137/259 88/138/260
f 89/139/261 90/140/262 85/135/263 88/138/264
f 89/139/265 91/141/266 92/142/267 90/140/268
f 86/136/269 92/143/270 91/144/271 87/137/272
f 72/118/273 71/117/274 55/89/275 54/88/276
f 74/122/277 72/121/278 54/145/279 53/146/280
f 76/124/281 74/122/282 53/146/283 56/147/284
f 71/117/285 76/124/286 56/147/287 55/89/288
f 80/128/289 79/127/290 57/95/291 60/148/292
f 82/130/293 80/128/294 60/148/295 59/149/296
f 84/132/297 82/130/298 59/149/299 58/150/300
f 79/127/301 84/134/302 58/96/303 57/95/304
f 88/138/305 87/137/306 42/72/307 41/151/308
f 44/152/309 89/139/310 88/138/311 41/151/312
f 44/152/313 43/153/314 91/141/315 89/139/316
f 87/137/317 91/144/318 43/73/319 42/72/320
f 63/106/321 64/108/322 75/123/323 70/116/324
f 61/107/325 63/106/326 70/116/327 69/115/328
f 62/104/329 61/103/330 69/120/331 73/119/332
f 64/108/333 62/104/334 73/119/335 75/123/336
f 67/112/337 68/114/338 77/125/339 81/129/340
f 65/113/341 67/112/342 81/129/343 83/131/344
f 66/111/345 65/110/346 83/133/347 78/126/348
f 68/114/349 66/111/350 78/126/351 77/125/352
f 90/140/353 45/75/354 40/70/355 85/135/356
f 90/140/357 92/142/358 46/76/359 45/75/360
f 39/69/361 46/84/362 92/143/363 86/136/364
f 40/70/365 39/69/366 86/136/367 85/135/368
