# This file uses centimeters as units for non-parametric coordinates.

g default
v -8.270000 -1.834000 8.270000
v 8.269895 -1.834000 8.270000
v -8.270000 1.833807 8.270000
v 8.269895 1.833807 8.270000
v -8.270000 1.833807 -8.269895
v 8.269895 1.833807 -8.269895
v -8.270000 -1.834000 -8.269895
v 8.269895 -1.834000 -8.269895
v -7.525009 1.833807 7.525009
v 7.524903 1.833807 7.525009
v 7.524903 1.833807 -7.524903
v -7.525009 1.833807 -7.524903
v -7.525009 0.969975 7.525009
v 7.524903 0.969975 7.525009
v 7.524903 0.969975 -7.524903
v -7.525009 0.969975 -7.524903
vt 0.116596 0.508916
vt 0.516523 0.510142
vt 0.516257 0.598818
vt 0.116330 0.597612
vt 0.944891 0.939176
vt 0.580988 0.939730
vt 0.580434 0.575822
vt 0.944337 0.575279
vt 0.118097 0.020314
vt 0.518025 0.021519
vt 0.517759 0.110215
vt 0.117832 0.108989
vt 0.606440 0.110485
vt 0.605214 0.510412
vt 0.027915 0.508646
vt 0.029141 0.108719
vt 0.962954 0.978079
vt 0.563023 0.978626
vt 0.581014 0.960601
vt 0.944917 0.960077
vt 0.542116 0.957790
vt 0.541505 0.557860
vt 0.559548 0.575849
vt 0.560100 0.939751
vt 0.562376 0.536921
vt 0.962307 0.536381
vt 0.944315 0.554412
vt 0.580412 0.554916
vt 0.983211 0.557214
vt 0.983817 0.957144
vt 0.965774 0.939154
vt 0.965226 0.575252
vn 0.000000 0.000000 1.000000
vn 0.000000 0.000000 1.000000
vn 0.000000 0.000000 1.000000
vn 0.000000 0.000000 1.000000
vn 0.000000 1.000000 0.000000
vn 0.000000 1.000000 0.000000
vn 0.000000 1.000000 0.000000
vn 0.000000 1.000000 0.000000
vn 0.000000 0.000000 -1.000000
vn 0.000000 0.000000 -1.000000
vn 0.000000 0.000000 -1.000000
vn 0.000000 0.000000 -1.000000
vn 0.000000 -1.000000 0.000000
vn 0.000000 -1.000000 0.000000
vn 0.000000 -1.000000 0.000000
vn 0.000000 -1.000000 0.000000
vn 1.000000 0.000000 0.000000
vn 1.000000 0.000000 0.000000
vn 1.000000 0.000000 0.000000
vn 1.000000 0.000000 0.000000
vn -1.000000 0.000000 0.000000
vn -1.000000 0.000000 0.000000
vn -1.000000 0.000000 0.000000
vn -1.000000 0.000000 0.000000
vn 0.000000 1.000000 0.000000
vn 0.000000 1.000000 0.000000
vn 0.000000 1.000000 0.000000
vn 0.000000 1.000000 0.000000
vn 0.000000 1.000000 0.000000
vn 0.000000 1.000000 0.000000
vn 0.000000 1.000000 0.000000
vn 0.000000 1.000000 0.000000
vn 0.000000 1.000000 0.000000
vn 0.000000 1.000000 0.000000
vn 0.000000 1.000000 0.000000
vn 0.000000 1.000000 0.000000
vn 0.000000 1.000000 0.000000
vn 0.000000 1.000000 0.000000
vn 0.000000 1.000000 0.000000
vn 0.000000 1.000000 0.000000
vn 0.000000 0.000000 -1.000000
vn 0.000000 0.000000 -1.000000
vn 0.000000 0.000000 -1.000000
vn 0.000000 0.000000 -1.000000
vn -1.000000 0.000000 0.000000
vn -1.000000 0.000000 0.000000
vn -1.000000 0.000000 0.000000
vn -1.000000 0.000000 0.000000
vn 0.000000 0.000000 1.000000
vn 0.000000 0.000000 1.000000
vn 0.000000 0.000000 1.000000
vn 0.000000 0.000000 1.000000
vn 1.000000 0.000000 0.000000
vn 1.000000 0.000000 0.000000
vn 1.000000 0.000000 0.000000
vn 1.000000 0.000000 0.000000
s off
g PlantBox:pCube1
f 1/1/1 2/2/2 4/3/3 3/4/4
f 13/5/5 14/6/6 15/7/7 16/8/8
f 5/9/9 6/10/10 8/11/11 7/12/12
f 7/12/13 8/11/14 2/2/15 1/1/16
f 2/2/17 8/11/18 6/13/19 4/14/20
f 7/12/21 1/1/22 3/15/23 5/16/24
f 3/17/25 4/18/26 10/19/27 9/20/28
f 4/21/29 6/22/30 11/23/31 10/24/32
f 6/25/33 5/26/34 12/27/35 11/28/36
f 5/29/37 3/30/38 9/31/39 12/32/40
f 9/20/41 10/19/42 14/6/43 13/5/44
f 10/24/45 11/23/46 15/7/47 14/6/48
f 11/28/49 12/27/50 16/8/51 15/7/52
f 12/32/53 9/31/54 13/5/55 16/8/56
